<svg id="Layer_1" data-name="Layer 1" xmlns="http://www.w3.org/2000/svg" viewBox="0 0 303.31 178.58">
  <defs>
    <style>
      .cls-1 {
        fill: #5ca18f;
      }

      .cls-2 {
        fill: #f26c36;
      }

      .cls-3 {
        fill: #73a0a7;
      }

      .cls-4 {
        fill: #123357;
      }

      .cls-5 {
        fill: #d48279;
      }

      .cls-6 {
        fill: #f8bf49;
      }

      .cls-7 {
        fill: #719fa6;
      }

      .cls-8 {
        fill: #f7bf49;
      }
    </style>
  </defs>
  <title>background</title>
  <path class="cls-1" d="M292.86,142.9a0.67,0.67,0,0,0,0,.62,1.08,1.08,0,0,0-.25.64,0.34,0.34,0,0,0,0,.23l0.19,0.34a0.48,0.48,0,0,0,0,.1,0.5,0.5,0,0,0,.26.46l0.05,0,0.35,0.13a0.38,0.38,0,0,0,.17.48c10.49,5.61,17.73-1.92,19.15-3.56a0.38,0.38,0,0,0,.08-0.14l0.13-.12a0.45,0.45,0,0,0,.14-0.43,0.94,0.94,0,0,0,.09-0.83,0.61,0.61,0,0,0-.25-0.26l0-.09a1.23,1.23,0,0,0-.86-0.71,16.66,16.66,0,0,0-2.67-1.15,16.24,16.24,0,0,0-10.84-.1C298.38,138.59,294.32,140.59,292.86,142.9Zm1.25,1.23-0.48,0c2.86-1.65,17.3-2.91,18.83-2.93l-0.06.12A61.4,61.4,0,0,1,294.12,144.13Zm17-1.6a18.8,18.8,0,0,1-16.78,2.36A62.83,62.83,0,0,0,311.16,142.53ZM293.48,145h0Zm2.69,1.19a18.82,18.82,0,0,0,12.57-1.33A13.35,13.35,0,0,1,296.17,146.22Zm15.63-5.75,0.08,0c-2.65.19-12.44,1-17,2.38a38.88,38.88,0,0,1,4.08-2c4.41-2,11.83-.73,12.85-0.38h0Zm-12.92-1.26a15.26,15.26,0,0,1,9.67-.06c-2.92-.29-7-0.3-9.91,1a37.66,37.66,0,0,0-4.29,2.15A20.3,20.3,0,0,1,298.88,139.21Z"/>
  <path class="cls-1" d="M11.79,161.49a0.67,0.67,0,0,0,0,.62,1.08,1.08,0,0,0-.25.64,0.34,0.34,0,0,0,0,.23l0.19,0.34a0.48,0.48,0,0,0,0,.1,0.5,0.5,0,0,0,.26.46l0.05,0L12.38,164a0.38,0.38,0,0,0,.17.48c10.49,5.61,17.73-1.92,19.15-3.56a0.38,0.38,0,0,0,.08-0.14l0.13-.12a0.45,0.45,0,0,0,.14-0.43,0.94,0.94,0,0,0,.09-0.83,0.61,0.61,0,0,0-.25-0.26l0-.09a1.23,1.23,0,0,0-.86-0.71,16.66,16.66,0,0,0-2.67-1.15,16.24,16.24,0,0,0-10.84-.1C17.31,157.18,13.24,159.18,11.79,161.49ZM13,162.72l-0.48,0c2.86-1.65,17.3-2.91,18.83-2.93l-0.06.12A61.4,61.4,0,0,1,13,162.72Zm17-1.6a18.8,18.8,0,0,1-16.78,2.36A62.83,62.83,0,0,0,30.09,161.12Zm-17.68,2.49h0Zm2.69,1.19a18.82,18.82,0,0,0,12.57-1.33A13.35,13.35,0,0,1,15.1,164.81Zm15.63-5.75,0.08,0c-2.65.19-12.44,1-17,2.38a38.88,38.88,0,0,1,4.08-2c4.41-2,11.83-.73,12.85-0.38h0ZM17.8,157.8a15.26,15.26,0,0,1,9.67-.06c-2.92-.29-7-0.3-9.91,1a37.66,37.66,0,0,0-4.29,2.15A20.3,20.3,0,0,1,17.8,157.8Z"/>
  <path class="cls-2" d="M5.13,16.1a0.67,0.67,0,0,0,.41.47,1.08,1.08,0,0,0,.28.62,0.34,0.34,0,0,0,.19.13l0.38,0.1,0.06,0.08a0.5,0.5,0,0,0,.51.13L7,17.6l0.34-.16a0.38,0.38,0,0,0,.46.21c11.35-3.57,11-14,10.85-16.18a0.38,0.38,0,0,0,0-.16V1.15a0.45,0.45,0,0,0-.21-0.4A0.94,0.94,0,0,0,17.87.09a0.61,0.61,0,0,0-.36,0L17.44,0a1.23,1.23,0,0,0-1.11.12,16.66,16.66,0,0,0-2.69,1.1A16.24,16.24,0,0,0,6,8.94C5.91,9.14,4.49,13.44,5.13,16.1Zm1.76,0c-0.15.15-.25,0.27-0.32,0.36C7.39,13.22,16.59,2,17.65.91l0,0.12A61.4,61.4,0,0,1,6.89,16.06ZM17.67,2.76A18.8,18.8,0,0,1,7.62,16.41,62.83,62.83,0,0,0,17.67,2.76ZM7.08,17.14h0Zm2.73-1.09a18.82,18.82,0,0,0,7.85-9.91A13.35,13.35,0,0,1,9.81,16.06ZM16.63,0.87l0.08,0c-1.72,2-8,9.58-10.2,13.81a38.88,38.88,0,0,1,1.4-4.33c1.69-4.52,7.75-9,8.72-9.44h0ZM6.7,9.22a15.26,15.26,0,0,1,6.72-6.95C11.17,4.16,8.31,7.06,7.19,10a37.66,37.66,0,0,0-1.46,4.56A20.3,20.3,0,0,1,6.7,9.22Z"/>
  <path class="cls-2" d="M260.84,183.21a0.67,0.67,0,0,0,.41.47,1.08,1.08,0,0,0,.28.62,0.34,0.34,0,0,0,.19.13l0.38,0.1,0.06,0.08a0.5,0.5,0,0,0,.51.13l0.05,0,0.34-.16a0.38,0.38,0,0,0,.46.21c11.35-3.57,11-14,10.85-16.18a0.38,0.38,0,0,0,0-.16v-0.17a0.45,0.45,0,0,0-.21-0.4,0.94,0.94,0,0,0-.53-0.65,0.61,0.61,0,0,0-.36,0l-0.08,0a1.23,1.23,0,0,0-1.11.12,16.66,16.66,0,0,0-2.69,1.1,16.24,16.24,0,0,0-7.66,7.68C261.62,176.25,260.2,180.56,260.84,183.21Zm1.76,0c-0.15.15-.25,0.27-0.32,0.36,0.82-3.2,10-14.4,11.08-15.51l0,0.12A61.4,61.4,0,0,1,262.59,183.18Zm10.78-13.3a18.8,18.8,0,0,1-10.05,13.65A62.83,62.83,0,0,0,273.37,169.88Zm-10.59,14.38h0Zm2.73-1.09a18.82,18.82,0,0,0,7.85-9.91A13.35,13.35,0,0,1,265.52,183.17ZM272.34,168l0.08,0c-1.72,2-8,9.58-10.2,13.81a38.88,38.88,0,0,1,1.4-4.33c1.69-4.52,7.75-9,8.72-9.44h0Zm-9.94,8.35a15.26,15.26,0,0,1,6.72-6.95c-2.25,1.89-5.11,4.79-6.22,7.77a37.66,37.66,0,0,0-1.46,4.56A20.3,20.3,0,0,1,262.4,176.33Z"/>
  <path class="cls-3" d="M164.73,9.64a0.67,0.67,0,0,0,.51-0.36,1.08,1.08,0,0,0,.65-0.21A0.34,0.34,0,0,0,166,8.9l0.14-.36,0.08,0A0.5,0.5,0,0,0,166.45,8V7.94l-0.12-.35a0.38,0.38,0,0,0,.26-0.43c-2.31-11.67-12.73-12.49-14.9-12.55a0.38,0.38,0,0,0-.16,0l-0.17,0a0.45,0.45,0,0,0-.42.16,0.94,0.94,0,0,0-.7.46,0.61,0.61,0,0,0,0,.36l-0.05.07a1.23,1.23,0,0,0,0,1.12,16.66,16.66,0,0,0,.8,2.79A16.24,16.24,0,0,0,157.71,8C157.9,8.11,162,10,164.73,9.64Zm0.16-1.75c0.14,0.16.24,0.28,0.32,0.35C162.11,7.08,152-3.29,151-4.46l0.13,0A61.4,61.4,0,0,1,164.89,7.89Zm-12-12.16A18.8,18.8,0,0,1,165.31,7.2,62.83,62.83,0,0,0,152.84-4.27ZM166,7.82h0ZM165.2,5a18.82,18.82,0,0,0-9-8.88A13.35,13.35,0,0,1,165.2,5ZM150.84-3.45l0-.08c1.83,1.93,8.65,9,12.62,11.64a38.88,38.88,0,0,1-4.15-1.87c-4.31-2.17-8.06-8.68-8.44-9.69h0Zm7.22,10.79A15.26,15.26,0,0,1,151.89-.1c1.63,2.44,4.2,5.6,7.05,7a37.66,37.66,0,0,0,4.38,2A20.3,20.3,0,0,1,158.06,7.34Z"/>
  <path class="cls-4" d="M35.41,35.78a0.67,0.67,0,0,0,.11.61,1.08,1.08,0,0,0-.08.68,0.34,0.34,0,0,0,.09.21l0.27,0.28a0.48,0.48,0,0,0,0,.1,0.5,0.5,0,0,0,.37.37h0.06l0.37,0a0.38,0.38,0,0,0,.28.42c11.56,2.79,16.68-6.31,17.64-8.26a0.38,0.38,0,0,0,0-.16l0.1-.15a0.45,0.45,0,0,0,0-.45,0.94,0.94,0,0,0-.12-0.83,0.61,0.61,0,0,0-.31-0.19l0-.08a1.23,1.23,0,0,0-1-.47,16.66,16.66,0,0,0-2.87-.44,16.24,16.24,0,0,0-10.52,2.63C39.67,30.22,36.24,33.18,35.41,35.78Zm1.52,0.88-0.46.14c2.35-2.32,16-7.17,17.49-7.58a1.28,1.28,0,0,1,0,.13A61.4,61.4,0,0,1,36.94,36.66ZM53,30.82a18.8,18.8,0,0,1-15.65,6.51A62.83,62.83,0,0,0,53,30.82ZM36.55,37.69h0Zm2.9,0.48a18.82,18.82,0,0,0,11.84-4.45A13.35,13.35,0,0,1,39.45,38.16Zm13.68-9.5h0.08c-2.52.85-11.79,4.08-15.86,6.58a38.88,38.88,0,0,1,3.44-3c3.78-3,11.26-3.68,12.34-3.6h0Zm-12.82,2a15.26,15.26,0,0,1,9.34-2.49c-2.9.46-6.84,1.47-9.34,3.45a37.66,37.66,0,0,0-3.61,3.16A20.3,20.3,0,0,1,40.3,30.7Z"/>
  <path class="cls-4" d="M228,154.38a0.67,0.67,0,0,0,.11.61,1.08,1.08,0,0,0-.08.68,0.34,0.34,0,0,0,.09.21l0.27,0.28a0.48,0.48,0,0,0,0,.1,0.5,0.5,0,0,0,.37.37h0.06l0.37,0a0.38,0.38,0,0,0,.29.42c11.58,2.74,16.65-6.4,17.6-8.35a0.38,0.38,0,0,0,0-.16l0.1-.15a0.45,0.45,0,0,0,0-.45,0.94,0.94,0,0,0-.13-0.83,0.61,0.61,0,0,0-.31-0.18l0-.08a1.23,1.23,0,0,0-1-.47,16.66,16.66,0,0,0-2.87-.43,16.24,16.24,0,0,0-10.51,2.68C232.24,148.81,228.81,151.78,228,154.38Zm1.53,0.87-0.46.15c2.34-2.33,16-7.24,17.45-7.66a1.28,1.28,0,0,1,0,.13A61.4,61.4,0,0,1,229.53,155.25Zm16.07-5.91A18.8,18.8,0,0,1,230,155.93,62.83,62.83,0,0,0,245.6,149.34Zm-16.45,6.94h0Zm2.9,0.46a18.82,18.82,0,0,0,11.81-4.5A13.35,13.35,0,0,1,232,156.75Zm13.63-9.56h0.08c-2.51.86-11.77,4.14-15.83,6.65a38.88,38.88,0,0,1,3.42-3c3.77-3,11.25-3.73,12.32-3.66h0Zm-12.81,2.09a15.26,15.26,0,0,1,9.33-2.53c-2.9.47-6.84,1.5-9.33,3.5a37.66,37.66,0,0,0-3.59,3.17A20.3,20.3,0,0,1,232.87,149.27Z"/>
  <path class="cls-4" d="M291.56,67.55a0.67,0.67,0,0,0-.2.59,1.08,1.08,0,0,0-.39.56,0.34,0.34,0,0,0,0,.23l0.11,0.37,0,0.09a0.5,0.5,0,0,0,.15.51l0,0,0.31,0.21a0.38,0.38,0,0,0,.05.5c8.83,8,17.67,2.42,19.45,1.16a0.38,0.38,0,0,0,.11-0.12l0.16-.08a0.45,0.45,0,0,0,.24-0.38,0.94,0.94,0,0,0,.29-0.79,0.61,0.61,0,0,0-.18-0.31,0.71,0.71,0,0,0,0-.09,1.23,1.23,0,0,0-.66-0.9,16.66,16.66,0,0,0-2.31-1.76,16.24,16.24,0,0,0-10.5-2.72C298,64.7,293.53,65.65,291.56,67.55Zm0.92,1.5L292,69c3.18-.92,17.49,1.35,19,1.7l-0.09.1A61.4,61.4,0,0,1,292.48,69Zm16.93,2.56a18.8,18.8,0,0,1-16.86-1.75A62.83,62.83,0,0,0,309.41,71.6Zm-17.76-1.84h0Zm2.32,1.8a18.82,18.82,0,0,0,12.52,1.74A13.35,13.35,0,0,1,294,71.57Zm16.55-1.81,0.07,0c-2.62-.46-12.31-2-17.08-1.8A38.88,38.88,0,0,1,298,67c4.75-.83,11.65,2.15,12.56,2.73h0Zm-12.23-4.34a15.26,15.26,0,0,1,9.4,2.28c-2.77-1-6.72-2-9.86-1.43a37.66,37.66,0,0,0-4.68,1.05A20.3,20.3,0,0,1,298.28,65.41Z"/>
  <path class="cls-5" d="M17.87,112.41A0.67,0.67,0,0,0,18,113a1.08,1.08,0,0,0,0,.68,0.34,0.34,0,0,0,.1.21l0.28,0.27a0.48,0.48,0,0,0,0,.1,0.5,0.5,0,0,0,.39.36H18.8l0.37,0a0.38,0.38,0,0,0,.3.4C31.16,117.31,35.85,108,36.72,106a0.38,0.38,0,0,0,0-.16l0.09-.15a0.45,0.45,0,0,0,0-.45,0.94,0.94,0,0,0-.16-0.82,0.61,0.61,0,0,0-.32-0.17l0-.08a1.23,1.23,0,0,0-1-.43,16.66,16.66,0,0,0-2.89-.31A16.24,16.24,0,0,0,22,106.52C21.87,106.66,18.57,109.77,17.87,112.41Zm1.56,0.81-0.45.16c2.24-2.43,15.67-7.89,17.13-8.37a1.28,1.28,0,0,1,0,.13A61.4,61.4,0,0,1,19.43,113.21Zm15.81-6.56a18.8,18.8,0,0,1-15.33,7.22A62.83,62.83,0,0,0,35.24,106.65Zm-16.15,7.61h0ZM22,114.6a18.82,18.82,0,0,0,11.62-5A13.35,13.35,0,0,1,22,114.6Zm13.23-10.11h0.08c-2.48,1-11.59,4.61-15.54,7.3a38.88,38.88,0,0,1,3.29-3.14c3.64-3.17,11.08-4.19,12.16-4.16h0ZM22.52,107.1a15.26,15.26,0,0,1,9.22-2.91c-2.88.59-6.77,1.78-9.17,3.88a37.66,37.66,0,0,0-3.46,3.32A20.3,20.3,0,0,1,22.52,107.1Z"/>
  <path class="cls-5" d="M277.66,41.78a0.67,0.67,0,0,0,.5-0.36,1.08,1.08,0,0,0,.64-0.22A0.34,0.34,0,0,0,279,41l0.13-.37,0.08,0a0.5,0.5,0,0,0,.18-0.49l0-.05-0.13-.35a0.38,0.38,0,0,0,.25-0.44C277,27.63,266.55,27,264.37,26.94a0.38,0.38,0,0,0-.16,0l-0.17,0a0.45,0.45,0,0,0-.42.17,0.94,0.94,0,0,0-.7.47,0.61,0.61,0,0,0,0,.36l-0.05.07a1.23,1.23,0,0,0,0,1.12,16.66,16.66,0,0,0,.84,2.78,16.24,16.24,0,0,0,6.92,8.35C270.81,40.34,275,42.16,277.66,41.78ZM277.79,40c0.14,0.16.24,0.27,0.33,0.35C275,39.26,264.73,29,263.72,27.89l0.13,0A61.4,61.4,0,0,1,277.79,40ZM265.57,28a18.8,18.8,0,0,1,12.64,11.29A62.83,62.83,0,0,0,265.57,28Zm13.32,11.89h0Zm-0.83-2.82a18.82,18.82,0,0,0-9.13-8.74A13.35,13.35,0,0,1,278.06,37.11Zm-14.48-8.22,0-.08c1.86,1.9,8.78,8.86,12.8,11.45a38.88,38.88,0,0,1-4.18-1.8c-4.34-2.11-8.19-8.56-8.59-9.56h0ZM271,39.57a15.26,15.26,0,0,1-6.29-7.34c1.67,2.42,4.29,5.53,7.16,6.93A37.66,37.66,0,0,0,276.24,41,20.3,20.3,0,0,1,271,39.57Z"/>
  <path class="cls-6" d="M264.48,113.06a0.67,0.67,0,0,0,.26.57,1.08,1.08,0,0,0,.09.68,0.34,0.34,0,0,0,.14.18l0.33,0.2a0.48,0.48,0,0,0,0,.09,0.5,0.5,0,0,0,.45.27h0.06l0.37-.06a0.38,0.38,0,0,0,.38.34c11.89-.11,14.64-10.19,15.1-12.31a0.38,0.38,0,0,0,0-.16l0.06-.16a0.45,0.45,0,0,0-.08-0.45,0.94,0.94,0,0,0-.32-0.78,0.61,0.61,0,0,0-.34-0.11l-0.06-.07a1.23,1.23,0,0,0-1.1-.21,16.66,16.66,0,0,0-2.89.27,16.24,16.24,0,0,0-9.56,5.11C267.26,106.63,264.64,110.33,264.48,113.06Zm1.69,0.48-0.41.25c1.72-2.82,13.79-10.85,15.12-11.61a1.28,1.28,0,0,1,0,.13A61.4,61.4,0,0,1,266.17,113.54ZM280.36,104a18.8,18.8,0,0,1-13.59,10.12A62.83,62.83,0,0,0,280.36,104ZM266,114.63h0S266,114.63,266,114.63Zm2.93-.24a18.82,18.82,0,0,0,10.4-7.2A13.35,13.35,0,0,1,269,114.38Zm11-12.54H280c-2.24,1.44-10.44,6.83-13.78,10.24a38.88,38.88,0,0,1,2.6-3.73c2.94-3.83,10-6.31,11.09-6.49h0ZM268,106.93a15.26,15.26,0,0,1,8.46-4.69c-2.7,1.15-6.28,3.09-8.22,5.62a37.66,37.66,0,0,0-2.73,3.94A20.3,20.3,0,0,1,268,106.93Z"/>
  <path class="cls-6" d="M84,10.21a0.67,0.67,0,0,0,.56-0.28,1.08,1.08,0,0,0,.67-0.11,0.34,0.34,0,0,0,.18-0.15l0.19-.34,0.09,0a0.5,0.5,0,0,0,.25-0.46V8.78l-0.07-.37A0.38,0.38,0,0,0,86.17,8C85.58-3.86,75.4-6.2,73.26-6.57a0.38,0.38,0,0,0-.16,0l-0.17-.05a0.45,0.45,0,0,0-.44.1,0.94,0.94,0,0,0-.76.35,0.61,0.61,0,0,0-.09.35l-0.06.06a1.23,1.23,0,0,0-.17,1.11,16.66,16.66,0,0,0,.38,2.88,16.24,16.24,0,0,0,5.49,9.35C77.45,7.7,81.26,10.16,84,10.21ZM84.4,8.5c0.11,0.18.2,0.31,0.27,0.4C81.77,7.3,73.27-4.44,72.46-5.74h0.13A61.4,61.4,0,0,1,84.4,8.5ZM74.26-5.29A18.8,18.8,0,0,1,84.92,7.89,62.83,62.83,0,0,0,74.26-5.29ZM85.49,8.59h0ZM85.13,5.67a18.82,18.82,0,0,0-7.6-10.1A13.35,13.35,0,0,1,85.13,5.67Zm-13-10.44,0-.08C73.67-2.68,79.39,5.31,82.93,8.51A38.88,38.88,0,0,1,79.1,6.06c-3.95-2.78-6.7-9.77-6.93-10.82h0ZM77.73,7a15.26,15.26,0,0,1-5-8.26C74,1.35,76,4.85,78.65,6.68a37.66,37.66,0,0,0,4,2.57A20.3,20.3,0,0,1,77.73,7Z"/>
  <path class="cls-4" d="M86.7,168.57a0.67,0.67,0,0,0-.49.38,1.08,1.08,0,0,0-.64.24,0.34,0.34,0,0,0-.14.18l-0.12.37-0.08.05a0.5,0.5,0,0,0-.16.5l0,0.05,0.14,0.35a0.38,0.38,0,0,0-.24.45c2.9,11.54,13.34,11.84,15.51,11.78a0.38,0.38,0,0,0,.16,0l0.17,0a0.45,0.45,0,0,0,.42-0.18,0.94,0.94,0,0,0,.68-0.49,0.61,0.61,0,0,0,0-.36l0-.07a1.23,1.23,0,0,0-.05-1.12,16.66,16.66,0,0,0-.94-2.75,16.24,16.24,0,0,0-7.22-8.1C93.6,169.76,89.39,168.09,86.7,168.57Zm-0.07,1.76c-0.14-.16-0.25-0.26-0.34-0.34,3.15,1,13.79,10.85,14.83,12L101,182A61.4,61.4,0,0,1,86.63,170.33Zm12.64,11.54a18.8,18.8,0,0,1-13-10.83A62.83,62.83,0,0,0,99.28,181.87ZM85.54,170.46h0Zm0.93,2.79a18.82,18.82,0,0,0,9.44,8.41A13.35,13.35,0,0,1,86.47,173.25Zm14.76,7.7,0,0.08c-1.92-1.84-9.09-8.55-13.19-11a38.88,38.88,0,0,1,4.24,1.65c4.41,2,8.49,8.27,8.92,9.25h0Zm-7.75-10.41a15.26,15.26,0,0,1,6.54,7.12c-1.75-2.36-4.48-5.38-7.4-6.67a37.66,37.66,0,0,0-4.47-1.73A20.3,20.3,0,0,1,93.48,170.54Z"/>
  <path class="cls-6" d="M204.32,25.43a0.67,0.67,0,0,0,.16.6,1.08,1.08,0,0,0,0,.68,0.34,0.34,0,0,0,.11.2l0.29,0.26a0.48,0.48,0,0,0,0,.1,0.5,0.5,0,0,0,.4.35h0.43A0.38,0.38,0,0,0,206,28c11.74,1.91,16.16-7.55,17-9.57a0.38,0.38,0,0,0,0-.16l0.09-.15a0.45,0.45,0,0,0,0-.45,0.94,0.94,0,0,0-.18-0.82,0.61,0.61,0,0,0-.32-0.16l0-.07a1.23,1.23,0,0,0-1-.4,16.66,16.66,0,0,0-2.9-.23,16.24,16.24,0,0,0-10.29,3.41C208.15,19.57,204.94,22.77,204.32,25.43Zm1.59,0.76-0.44.18c2.17-2.49,15.43-8.35,16.87-8.87a1.28,1.28,0,0,1,0,.13A61.4,61.4,0,0,1,205.9,26.19Zm15.61-7a18.8,18.8,0,0,1-15.11,7.67A62.83,62.83,0,0,0,221.51,19.16Zm-15.92,8.08h0Zm2.93,0.26A18.82,18.82,0,0,0,220,22.17,13.35,13.35,0,0,1,208.52,27.5ZM221.44,17h0.08c-2.45,1-11.45,5-15.32,7.75a38.88,38.88,0,0,1,3.2-3.24c3.54-3.28,11-4.51,12-4.52h0Zm-12.63,3a15.26,15.26,0,0,1,9.13-3.18c-2.86.67-6.71,2-9.06,4.15a37.66,37.66,0,0,0-3.36,3.42A20.3,20.3,0,0,1,208.81,20Z"/>
  <g id="NfY7IH.tif">
    <path class="cls-7" d="M183.54,171.36a2.72,2.72,0,0,1,.09.35,4.58,4.58,0,0,1,0,.49,0.22,0.22,0,0,0,.17.22c0.32,0.13.63,0.27,0.94,0.43a0.22,0.22,0,0,0,.28,0,5.56,5.56,0,0,1,.48-0.36,0.38,0.38,0,0,1,.44,0,2,2,0,0,1,.38.3,4.13,4.13,0,0,1,.45.57,0.45,0.45,0,0,1-.07.59l-0.32.36a0.24,0.24,0,0,0,0,.29c0.14,0.32.25,0.64,0.36,1a0.21,0.21,0,0,0,.2.17l0.53,0.07a0.45,0.45,0,0,1,.42.39,2.49,2.49,0,0,1,0,1.15,0.46,0.46,0,0,1-.48.37l-0.51,0a0.19,0.19,0,0,0-.19.14q-0.21.5-.45,1a0.19,0.19,0,0,0,0,.23l0.32,0.42a0.51,0.51,0,0,1-.05.71,2.69,2.69,0,0,1-.71.64,0.47,0.47,0,0,1-.63,0l-0.43-.38a0.14,0.14,0,0,0-.18,0,4,4,0,0,1-1.05.39,0.16,0.16,0,0,0-.14.15l-0.07.5a0.48,0.48,0,0,1-.46.49,2.6,2.6,0,0,1-1.05,0,0.47,0.47,0,0,1-.41-0.49c0-.18,0-0.36,0-0.53a0.16,0.16,0,0,0-.12-0.16c-0.33-.14-0.66-0.28-1-0.45a0.23,0.23,0,0,0-.3,0l-0.32.25a0.52,0.52,0,0,1-.77,0,2.71,2.71,0,0,1-.62-0.69,0.5,0.5,0,0,1,.08-0.69c0.12-.12.23-0.25,0.34-0.38a0.19,0.19,0,0,0,0-.17,4.46,4.46,0,0,1-.39-1.08,0.16,0.16,0,0,0-.17-0.13l-0.5-.07a0.48,0.48,0,0,1-.47-0.45,2.65,2.65,0,0,1,0-1.05,0.47,0.47,0,0,1,.49-0.41l0.53,0a0.16,0.16,0,0,0,.17-0.13,4.16,4.16,0,0,1,.47-1,0.15,0.15,0,0,0,0-.19l-0.36-.47a0.44,0.44,0,0,1,0-.53,2.44,2.44,0,0,1,.9-0.82,0.46,0.46,0,0,1,.55.08l0.4,0.36a0.2,0.2,0,0,0,.24,0c0.32-.13.65-0.25,1-0.36a0.22,0.22,0,0,0,.19-0.21c0-.19,0-0.37.08-0.55a0.43,0.43,0,0,1,.35-0.38,2.43,2.43,0,0,1,1.23.05A1.34,1.34,0,0,1,183.54,171.36Zm0.58,6.93a2.38,2.38,0,1,0-3.36-.12A2.37,2.37,0,0,0,184.12,178.29Z"/>
  </g>
  <g id="NfY7IH.tif-2" data-name="NfY7IH.tif">
    <path class="cls-5" d="M109.79,22.38a2.72,2.72,0,0,1,.09.35,4.58,4.58,0,0,1,0,.49,0.22,0.22,0,0,0,.17.22c0.32,0.13.63,0.27,0.94,0.43a0.22,0.22,0,0,0,.28,0,5.56,5.56,0,0,1,.48-0.36,0.38,0.38,0,0,1,.44,0,2,2,0,0,1,.38.3,4.13,4.13,0,0,1,.45.57,0.45,0.45,0,0,1-.07.59l-0.32.36a0.24,0.24,0,0,0,0,.29c0.14,0.32.25,0.64,0.36,1a0.21,0.21,0,0,0,.2.17l0.53,0.07a0.45,0.45,0,0,1,.42.39,2.49,2.49,0,0,1,0,1.15,0.46,0.46,0,0,1-.48.37l-0.51,0a0.19,0.19,0,0,0-.19.14q-0.21.5-.45,1a0.19,0.19,0,0,0,0,.23l0.32,0.42a0.51,0.51,0,0,1-.05.71,2.69,2.69,0,0,1-.71.64,0.47,0.47,0,0,1-.63,0L111,31.43a0.14,0.14,0,0,0-.18,0,4,4,0,0,1-1.05.39,0.16,0.16,0,0,0-.14.15l-0.07.5a0.48,0.48,0,0,1-.46.49,2.6,2.6,0,0,1-1.05,0,0.47,0.47,0,0,1-.41-0.49c0-.18,0-0.36,0-0.53a0.16,0.16,0,0,0-.12-0.16c-0.33-.14-0.66-0.28-1-0.45a0.23,0.23,0,0,0-.3,0l-0.32.25a0.52,0.52,0,0,1-.77,0,2.71,2.71,0,0,1-.62-0.69,0.5,0.5,0,0,1,.08-0.69c0.12-.12.23-0.25,0.34-0.38a0.19,0.19,0,0,0,0-.17,4.46,4.46,0,0,1-.39-1.08,0.16,0.16,0,0,0-.17-0.13l-0.5-.07a0.48,0.48,0,0,1-.47-0.45,2.65,2.65,0,0,1,0-1.05,0.47,0.47,0,0,1,.49-0.41l0.53,0a0.16,0.16,0,0,0,.17-0.13,4.16,4.16,0,0,1,.47-1,0.15,0.15,0,0,0,0-.19l-0.36-.47a0.44,0.44,0,0,1,0-.53,2.44,2.44,0,0,1,.9-0.82,0.46,0.46,0,0,1,.55.08l0.4,0.36a0.2,0.2,0,0,0,.24,0c0.32-.13.65-0.25,1-0.36a0.22,0.22,0,0,0,.19-0.21c0-.19,0-0.37.08-0.55a0.43,0.43,0,0,1,.35-0.38,2.43,2.43,0,0,1,1.23.05A1.34,1.34,0,0,1,109.79,22.38Zm0.58,6.93a2.38,2.38,0,1,0-3.36-.12A2.37,2.37,0,0,0,110.37,29.3Z"/>
  </g>
  <g id="NfY7IH.tif-3" data-name="NfY7IH.tif">
    <path class="cls-5" d="M305.1,5.44a2.73,2.73,0,0,1,.09.35,4.58,4.58,0,0,1,0,.49,0.22,0.22,0,0,0,.17.22c0.32,0.13.63,0.27,0.94,0.43a0.22,0.22,0,0,0,.28,0,5.56,5.56,0,0,1,.48-0.36,0.38,0.38,0,0,1,.44,0,2,2,0,0,1,.38.3,4.13,4.13,0,0,1,.45.57,0.45,0.45,0,0,1-.07.59L308,8.36a0.24,0.24,0,0,0,0,.29c0.14,0.32.25,0.64,0.36,1a0.21,0.21,0,0,0,.2.17L309,9.85a0.45,0.45,0,0,1,.42.39,2.49,2.49,0,0,1,0,1.15,0.46,0.46,0,0,1-.48.37l-0.51,0a0.19,0.19,0,0,0-.19.14q-0.21.5-.45,1a0.19,0.19,0,0,0,0,.23l0.32,0.42a0.51,0.51,0,0,1-.05.71,2.69,2.69,0,0,1-.71.64,0.47,0.47,0,0,1-.63,0l-0.43-.38a0.14,0.14,0,0,0-.18,0,4,4,0,0,1-1.05.39,0.16,0.16,0,0,0-.14.15l-0.07.5a0.48,0.48,0,0,1-.46.49,2.6,2.6,0,0,1-1.05,0,0.47,0.47,0,0,1-.41-0.49c0-.18,0-0.36,0-0.53a0.16,0.16,0,0,0-.12-0.16c-0.33-.14-0.66-0.28-1-0.45a0.23,0.23,0,0,0-.3,0l-0.32.25a0.52,0.52,0,0,1-.77,0,2.71,2.71,0,0,1-.62-0.69,0.5,0.5,0,0,1,.08-0.69c0.12-.12.23-0.25,0.34-0.38a0.19,0.19,0,0,0,0-.17,4.46,4.46,0,0,1-.39-1.08,0.16,0.16,0,0,0-.17-0.13l-0.5-.07a0.48,0.48,0,0,1-.47-0.45,2.65,2.65,0,0,1,0-1.05,0.47,0.47,0,0,1,.49-0.41l0.53,0a0.16,0.16,0,0,0,.17-0.13,4.16,4.16,0,0,1,.47-1,0.15,0.15,0,0,0,0-.19L300,7.65a0.44,0.44,0,0,1,0-.53,2.44,2.44,0,0,1,.9-0.82,0.46,0.46,0,0,1,.55.08l0.4,0.36a0.2,0.2,0,0,0,.24,0c0.32-.13.65-0.25,1-0.36a0.22,0.22,0,0,0,.19-0.21c0-.19,0-0.37.08-0.55a0.43,0.43,0,0,1,.35-0.38,2.43,2.43,0,0,1,1.23.05A1.34,1.34,0,0,1,305.1,5.44Zm0.58,6.93a2.38,2.38,0,1,0-3.36-.12A2.37,2.37,0,0,0,305.68,12.37Z"/>
  </g>
  <g id="NfY7IH.tif-4" data-name="NfY7IH.tif">
    <path class="cls-8" d="M60.46,138a2.72,2.72,0,0,1,.09.35,4.58,4.58,0,0,1,0,.49,0.22,0.22,0,0,0,.17.22c0.32,0.13.63,0.27,0.94,0.43a0.22,0.22,0,0,0,.28,0,5.56,5.56,0,0,1,.48-0.36,0.38,0.38,0,0,1,.44,0,2,2,0,0,1,.38.3,4.13,4.13,0,0,1,.45.57,0.45,0.45,0,0,1-.07.59l-0.32.36a0.24,0.24,0,0,0,0,.29c0.14,0.32.25,0.64,0.36,1a0.21,0.21,0,0,0,.2.17l0.53,0.07a0.45,0.45,0,0,1,.42.39,2.49,2.49,0,0,1,0,1.15,0.46,0.46,0,0,1-.48.37l-0.51,0a0.19,0.19,0,0,0-.19.14q-0.21.5-.45,1a0.19,0.19,0,0,0,0,.23l0.32,0.42a0.51,0.51,0,0,1-.05.71,2.69,2.69,0,0,1-.71.64,0.47,0.47,0,0,1-.63,0L61.63,147a0.14,0.14,0,0,0-.18,0,4,4,0,0,1-1.05.39,0.16,0.16,0,0,0-.14.15l-0.07.5a0.48,0.48,0,0,1-.46.49,2.6,2.6,0,0,1-1.05,0,0.47,0.47,0,0,1-.41-0.49c0-.18,0-0.36,0-0.53a0.16,0.16,0,0,0-.12-0.16c-0.33-.14-0.66-0.28-1-0.45a0.23,0.23,0,0,0-.3,0l-0.32.25a0.52,0.52,0,0,1-.77,0,2.71,2.71,0,0,1-.62-0.69,0.5,0.5,0,0,1,.08-0.69c0.12-.12.23-0.25,0.34-0.38a0.19,0.19,0,0,0,0-.17,4.46,4.46,0,0,1-.39-1.08A0.16,0.16,0,0,0,55,144l-0.5-.07a0.48,0.48,0,0,1-.47-0.45,2.65,2.65,0,0,1,0-1.05,0.47,0.47,0,0,1,.49-0.41l0.53,0a0.16,0.16,0,0,0,.17-0.13,4.16,4.16,0,0,1,.47-1,0.15,0.15,0,0,0,0-.19l-0.36-.47a0.44,0.44,0,0,1,0-.53,2.44,2.44,0,0,1,.9-0.82,0.46,0.46,0,0,1,.55.08l0.4,0.36a0.2,0.2,0,0,0,.24,0c0.32-.13.65-0.25,1-0.36a0.22,0.22,0,0,0,.19-0.21c0-.19,0-0.37.08-0.55A0.43,0.43,0,0,1,59,137.8a2.43,2.43,0,0,1,1.23.05A1.34,1.34,0,0,1,60.46,138ZM61,144.91a2.38,2.38,0,1,0-3.36-.12A2.37,2.37,0,0,0,61,144.91Z"/>
  </g>
  <g id="NfY7IH.tif-5" data-name="NfY7IH.tif">
    <path class="cls-4" d="M259.54-5.72a2.73,2.73,0,0,1,.09.35,4.58,4.58,0,0,1,0,.49,0.22,0.22,0,0,0,.17.22c0.32,0.13.63,0.27,0.94,0.43a0.22,0.22,0,0,0,.28,0,5.56,5.56,0,0,1,.48-0.36,0.38,0.38,0,0,1,.44,0,2,2,0,0,1,.38.3,4.13,4.13,0,0,1,.45.57,0.45,0.45,0,0,1-.07.59l-0.32.36a0.24,0.24,0,0,0,0,.29c0.14,0.32.25,0.64,0.36,1a0.21,0.21,0,0,0,.2.17l0.53,0.07a0.45,0.45,0,0,1,.42.39,2.49,2.49,0,0,1,0,1.15,0.46,0.46,0,0,1-.48.37l-0.51,0a0.19,0.19,0,0,0-.19.14q-0.21.5-.45,1a0.19,0.19,0,0,0,0,.23l0.32,0.42a0.51,0.51,0,0,1-.05.71,2.69,2.69,0,0,1-.71.64,0.47,0.47,0,0,1-.63,0l-0.43-.38a0.14,0.14,0,0,0-.18,0,4,4,0,0,1-1.05.39,0.16,0.16,0,0,0-.14.15l-0.07.5a0.48,0.48,0,0,1-.46.49,2.6,2.6,0,0,1-1.05,0,0.47,0.47,0,0,1-.41-0.49c0-.18,0-0.36,0-0.53a0.16,0.16,0,0,0-.12-0.16c-0.33-.14-0.66-0.28-1-0.45a0.23,0.23,0,0,0-.3,0l-0.32.25a0.52,0.52,0,0,1-.77,0,2.71,2.71,0,0,1-.62-0.69,0.5,0.5,0,0,1,.08-0.69c0.12-.12.23-0.25,0.34-0.38a0.19,0.19,0,0,0,0-.17,4.46,4.46,0,0,1-.39-1.08A0.16,0.16,0,0,0,254.09.3l-0.5-.07a0.48,0.48,0,0,1-.47-0.45,2.65,2.65,0,0,1,0-1.05,0.47,0.47,0,0,1,.49-0.41l0.53,0a0.16,0.16,0,0,0,.17-0.13,4.16,4.16,0,0,1,.47-1,0.15,0.15,0,0,0,0-.19l-0.36-.47a0.44,0.44,0,0,1,0-.53,2.44,2.44,0,0,1,.9-0.82,0.46,0.46,0,0,1,.55.08l0.4,0.36a0.2,0.2,0,0,0,.24,0c0.32-.13.65-0.25,1-0.36A0.22,0.22,0,0,0,257.66-5c0-.19,0-0.37.08-0.55a0.43,0.43,0,0,1,.35-0.38,2.43,2.43,0,0,1,1.23.05A1.34,1.34,0,0,1,259.54-5.72Zm0.58,6.93a2.37,2.37,0,0,0,.12-3.37,2.37,2.37,0,0,0-3.36-.11,2.37,2.37,0,0,0-.12,3.36A2.37,2.37,0,0,0,260.12,1.21Z"/>
  </g>
  <g id="NfY7IH.tif-6" data-name="NfY7IH.tif">
    <path class="cls-7" d="M18.73,64.77a2.72,2.72,0,0,1,.09.35,4.58,4.58,0,0,1,0,.49,0.22,0.22,0,0,0,.17.22c0.32,0.13.63,0.27,0.94,0.43a0.22,0.22,0,0,0,.28,0,5.56,5.56,0,0,1,.48-0.36,0.38,0.38,0,0,1,.44,0,2,2,0,0,1,.38.3,4.13,4.13,0,0,1,.45.57,0.45,0.45,0,0,1-.07.59l-0.32.36a0.24,0.24,0,0,0,0,.29c0.14,0.32.25,0.64,0.36,1a0.21,0.21,0,0,0,.2.17l0.53,0.07a0.45,0.45,0,0,1,.42.39,2.49,2.49,0,0,1,0,1.15,0.46,0.46,0,0,1-.48.37l-0.51,0a0.19,0.19,0,0,0-.19.14q-0.21.5-.45,1a0.19,0.19,0,0,0,0,.23l0.32,0.42a0.51,0.51,0,0,1-.05.71,2.69,2.69,0,0,1-.71.64,0.47,0.47,0,0,1-.63,0l-0.43-.38a0.14,0.14,0,0,0-.18,0,4,4,0,0,1-1.05.39,0.16,0.16,0,0,0-.14.15l-0.07.5a0.48,0.48,0,0,1-.46.49,2.6,2.6,0,0,1-1.05,0,0.47,0.47,0,0,1-.41-0.49c0-.18,0-0.36,0-0.53a0.16,0.16,0,0,0-.12-0.16c-0.33-.14-0.66-0.28-1-0.45a0.23,0.23,0,0,0-.3,0l-0.32.25a0.52,0.52,0,0,1-.77,0,2.71,2.71,0,0,1-.62-0.69,0.5,0.5,0,0,1,.08-0.69c0.12-.12.23-0.25,0.34-0.38a0.19,0.19,0,0,0,0-.17,4.46,4.46,0,0,1-.39-1.08,0.16,0.16,0,0,0-.17-0.13l-0.5-.07a0.48,0.48,0,0,1-.47-0.45,2.65,2.65,0,0,1,0-1.05,0.47,0.47,0,0,1,.49-0.41l0.53,0a0.16,0.16,0,0,0,.17-0.13,4.16,4.16,0,0,1,.47-1,0.15,0.15,0,0,0,0-.19L13.63,67a0.44,0.44,0,0,1,0-.53,2.44,2.44,0,0,1,.9-0.82,0.46,0.46,0,0,1,.55.08l0.4,0.36a0.2,0.2,0,0,0,.24,0c0.32-.13.65-0.25,1-0.36a0.22,0.22,0,0,0,.19-0.21c0-.19,0-0.37.08-0.55a0.43,0.43,0,0,1,.35-0.38,2.43,2.43,0,0,1,1.23.05A1.34,1.34,0,0,1,18.73,64.77Zm0.58,6.93a2.38,2.38,0,1,0-3.36-.12A2.37,2.37,0,0,0,19.31,71.7Z"/>
  </g>
</svg>
