<svg id="Layer_1" data-name="Layer 1" xmlns="http://www.w3.org/2000/svg" viewBox="0 0 95.54 19.19">
  <defs>
    <style>
      .cls-1 {
        fill: #404042;
      }
    </style>
  </defs>
  <title>cmtagline</title>
  <g>
    <g>
      <path class="cls-1" d="M1398.91,435.36c-0.41,1-.81,2-1.21,3-0.08,0-.76,0-0.85,0l-0.6-1.51-0.6-1.5a0,0,0,0,0,0,0s0,0.07,0,.11q0,1.38,0,2.76s0,0.07,0,.11h-1a0.46,0.46,0,0,1,0-.05s0,0,0-.07v-4.44s0-.07,0-0.11a0.16,0.16,0,0,1,.1,0H1396a0.14,0.14,0,0,1,0,.08l0.6,1.46,0.62,1.52a0.15,0.15,0,0,0,0,.08c0-.09.08-0.19,0.11-0.28l0.11-.28,0.11-.28,0.11-.28,0.11-.28,0.11-.29,0.11-.28,0.11-.28,0.11-.28,0.11-.28,0.11-.28c0.08,0,1.34,0,1.43,0a0.27,0.27,0,0,1,0,0s0,0.05,0,.08q0,2.22,0,4.43a0.39,0.39,0,0,1,0,.11h-1a0.23,0.23,0,0,1,0-.1q0-.51,0-1,0-.91,0-1.82a0.16,0.16,0,0,0,0-.1" transform="translate(-1355.88 -430.49)"/>
      <path class="cls-1" d="M1372.92,438.4v-4.67h1.27l1.73,2.81a0,0,0,0,0,0,0s0-.06,0-0.09q0-1.28,0-2.56a0.34,0.34,0,0,1,0-.12,2,2,0,0,1,.26,0H1377a0.17,0.17,0,0,1,0,.1q0,0.41,0,.82,0,1.82,0,3.64s0,0.08,0,.12h-1.09a0.21,0.21,0,0,1-.07-0.09l-0.78-1.24-1-1.64-0.06-.09,0,0s0,0.07,0,.1q0,1.4,0,2.79a0.29,0.29,0,0,1,0,.11c-0.08,0-.94,0-1,0" transform="translate(-1355.88 -430.49)"/>
      <path class="cls-1" d="M1428.39,438.41h-1v-0.05s0,0,0-.06v-4.55a0.11,0.11,0,0,1,.09,0h1.17l0.05,0.08,1.56,2.52,0.1,0.17,0,0.05,0,0s0-.07,0-0.1q0-1.28,0-2.57a0.37,0.37,0,0,1,0-.11h1a0.19,0.19,0,0,1,0,.1c0,0.26,0,.52,0,0.77v3.68s0,0.08,0,.12h-1.1l-1.91-3h0c0,0.11,0,.22,0,0.34s0,0.22,0,.33v1.69c0,0.11,0,.22,0,0.33s0,0.23,0,.35" transform="translate(-1355.88 -430.49)"/>
      <path class="cls-1" d="M1380.58,437.42h0.6l0.26,0a1.25,1.25,0,0,0,.43-0.14,1.13,1.13,0,0,0,.56-0.73,1.89,1.89,0,0,0,.06-0.59,1.57,1.57,0,0,0-.07-0.42,1.12,1.12,0,0,0-.68-0.73,1.41,1.41,0,0,0-.51-0.1h-0.64c0,0.09,0,2.14,0,2.64,0,0,0,0,0,.06m-1,1a0.13,0.13,0,0,1,0-.09c0-.19,0-0.38,0-0.57v-3.89s0-.08,0-0.12h1.73a2.63,2.63,0,0,1,.85.13,2,2,0,0,1,1.39,1.48,2.85,2.85,0,0,1,.08,1,2.51,2.51,0,0,1-.16.7,2,2,0,0,1-1.28,1.23,2.4,2.4,0,0,1-.63.13h-2" transform="translate(-1355.88 -430.49)"/>
      <path class="cls-1" d="M1418.45,438.41h-1a0.33,0.33,0,0,1,0-.05s0-.05,0-0.08q0-.81,0-1.62a0.24,0.24,0,0,0,0-.11,0.24,0.24,0,0,0-.11,0h-1.75a0.35,0.35,0,0,0,0,.05s0,0.05,0,.08q0,0.81,0,1.62a0.31,0.31,0,0,1,0,.11h-1v-0.05s0,0,0-.05q0-2.23,0-4.46s0-.07,0-0.11a3.36,3.36,0,0,1,.34,0h0.69a0.47,0.47,0,0,1,0,.05s0,0.08,0,.13q0,0.77,0,1.54a0.32,0.32,0,0,0,0,.11h1.86a0.33,0.33,0,0,0,0-.11q0-.8,0-1.59s0-.05,0-0.08a0.39,0.39,0,0,1,0,0h1a0.44,0.44,0,0,1,0,.06c0,0.12,0,.25,0,0.37q0,2.07,0,4.14a0.36,0.36,0,0,1,0,.11" transform="translate(-1355.88 -430.49)"/>
      <path class="cls-1" d="M1411.27,436.59l1,0.28a0.12,0.12,0,0,1,0,.08,2.11,2.11,0,0,1-1.05,1.3,2.25,2.25,0,0,1-.78.24,2.65,2.65,0,0,1-.59,0,2.33,2.33,0,0,1-2.19-2,2.77,2.77,0,0,1,0-.65,2.36,2.36,0,0,1,1.85-2.12,2.71,2.71,0,0,1,.93,0,2.23,2.23,0,0,1,.83.26,2,2,0,0,1,1,1.2l0,0.09a1.61,1.61,0,0,1-.24.08l-0.25.08-0.24.08-0.24.07,0-.05c0-.07,0-0.14-0.08-0.2a1,1,0,0,0-.62-0.54,1.4,1.4,0,0,0-.94,0,1.25,1.25,0,0,0-.78.79,1.58,1.58,0,0,0,0,1.06,1.27,1.27,0,0,0,1,.88,1.41,1.41,0,0,0,.6,0,1.15,1.15,0,0,0,.84-0.73l0-.09,0,0" transform="translate(-1355.88 -430.49)"/>
      <path class="cls-1" d="M1364.47,435.2l-0.94.3h0l0-.07a1.09,1.09,0,0,0-.85-0.76,1.39,1.39,0,0,0-.74,0,1.25,1.25,0,0,0-.8.74,1.57,1.57,0,0,0,0,1.14,1.26,1.26,0,0,0,1,.86,1.41,1.41,0,0,0,.6,0,1.16,1.16,0,0,0,.84-0.74l0-.09h0l0.94,0.27a0.51,0.51,0,0,1,0,.07,2.09,2.09,0,0,1-1.41,1.46,2.6,2.6,0,0,1-1,.11,2.44,2.44,0,0,1-1-.26,2.22,2.22,0,0,1-1.13-1.29,2.6,2.6,0,0,1,0-1.79,2.34,2.34,0,0,1,1.69-1.47,2.73,2.73,0,0,1,.95,0,2.24,2.24,0,0,1,.75.22,2,2,0,0,1,1,1.29v0" transform="translate(-1355.88 -430.49)"/>
      <path class="cls-1" d="M1440.95,436.59l1,0.28a0.08,0.08,0,0,1,0,.08,2.09,2.09,0,0,1-1.25,1.39,2.44,2.44,0,0,1-.88.17,2.53,2.53,0,0,1-1.11-.21,2.25,2.25,0,0,1-1.32-1.58,2.6,2.6,0,0,1,.08-1.55,2.35,2.35,0,0,1,1.7-1.49,2.73,2.73,0,0,1,.94,0,2.24,2.24,0,0,1,.79.24,2,2,0,0,1,1,1.26v0l-0.32.11-0.32.1-0.33.1,0-.05,0-.13a1.07,1.07,0,0,0-.68-0.62,1.39,1.39,0,0,0-.87,0,1.25,1.25,0,0,0-.82.79,1.57,1.57,0,0,0,0,1.09,1.27,1.27,0,0,0,1,.85,1.41,1.41,0,0,0,.63,0,1.15,1.15,0,0,0,.81-0.73l0-.1" transform="translate(-1355.88 -430.49)"/>
      <path class="cls-1" d="M1368.45,434.9l0,0.1-0.17.49-0.32.91a0.14,0.14,0,0,0,0,.09c0.08,0,.8,0,1.07,0h0a0.35,0.35,0,0,0,0,0c-0.06-.21-0.51-1.48-0.55-1.55m1.23,3.5c-0.12-.31-0.22-0.63-0.33-0.93h-1.82l0,0.07-0.28.79,0,0.08c-0.09,0-1,0-1.08,0a0.08,0.08,0,0,1,0,0l1.75-4.65a3,3,0,0,1,.31,0h0.9l0,0,1.72,4.62a0,0,0,0,1,0,0h-1.12" transform="translate(-1355.88 -430.49)"/>
      <path class="cls-1" d="M1423.45,436.5c0-.08-0.44-1.33-0.53-1.57v0h0l-0.55,1.54a0.17,0.17,0,0,0,0,0h0.05c0.39,0,1,0,1.06,0m-1.14-2.77h1.21c0.1,0.26.2,0.52,0.29,0.78l0.29,0.77,0.29,0.78,0.29,0.78,0.29,0.77,0.29,0.78c-0.08,0-1,0-1.12,0a0.16,0.16,0,0,1,0-.08l-0.27-.76,0-.1H1422c-0.12.31-.22,0.63-0.34,0.94-0.09,0-.6,0-1,0h-0.05a0.1,0.1,0,0,1,0,0l1.75-4.65" transform="translate(-1355.88 -430.49)"/>
      <path class="cls-1" d="M1447.4,434.86c-0.07,0-.83.25-0.92,0.26l0-.05a0.67,0.67,0,0,0-.52-0.5,0.92,0.92,0,0,0-.5,0,0.59,0.59,0,0,0-.3.19,0.43,0.43,0,0,0-.09.36,0.39,0.39,0,0,0,.19.27,0.8,0.8,0,0,0,.27.09l0.66,0.13a2,2,0,0,1,.57.2,1.44,1.44,0,0,1,.5.43,1.25,1.25,0,0,1,.24.71,1.4,1.4,0,0,1-.66,1.24,1.65,1.65,0,0,1-.69.26,2.45,2.45,0,0,1-1.08-.07,1.7,1.7,0,0,1-.88-0.59,1.61,1.61,0,0,1-.32-0.76,0.31,0.31,0,0,1,0,0l0,0,0.87-.21h0l0,0.06s0,0.1,0,.15a0.78,0.78,0,0,0,.48.52,1.17,1.17,0,0,0,.72,0,0.59,0.59,0,0,0,.24-0.12,0.42,0.42,0,0,0,0-.69,0.74,0.74,0,0,0-.28-0.11l-0.47-.09a3.41,3.41,0,0,1-.47-0.11,1.57,1.57,0,0,1-.65-0.4,1.22,1.22,0,0,1-.35-0.77,1.42,1.42,0,0,1,.73-1.39,1.71,1.71,0,0,1,.79-0.24,2.25,2.25,0,0,1,.84.09,1.45,1.45,0,0,1,1,1.1,0.37,0.37,0,0,1,0,0" transform="translate(-1355.88 -430.49)"/>
      <path class="cls-1" d="M1405.46,433.73v1h-1.91a0.31,0.31,0,0,0,0,0q0,0.4,0,.79a0.33,0.33,0,0,0,0,0,0.29,0.29,0,0,0,.11,0h1.62a0.3,0.3,0,0,1,0,0q0,0.41,0,.82a0.33,0.33,0,0,1,0,0,0.28,0.28,0,0,1-.11,0h-1.62a0.34,0.34,0,0,0,0,.06q0,0.39,0,.78a0.4,0.4,0,0,0,0,0,0.14,0.14,0,0,0,.09,0h1.83a2.9,2.9,0,0,1,0,.33c0,0.11,0,.22,0,0.32s0,0.21,0,.33h-3v-0.06s0,0,0-.06v-4.56h3" transform="translate(-1355.88 -430.49)"/>
      <path class="cls-1" d="M1386.72,438.4a0.27,0.27,0,0,1,0-.11q0-.66,0-1.32c0-.14,0-0.29,0-0.43a0.29,0.29,0,0,0,0-.16l-1.2-2-0.34-.56,0-.07h1.22l0.31,0.57,0.32,0.57,0.32,0.57a0.14,0.14,0,0,0,.06-0.07l0.62-1.11,0.26-.46,0-.07h1.14a0.08,0.08,0,0,1,0,.07l-0.58,1-1,1.61a0.32,0.32,0,0,0-.05.18c0,0.58,0,1.17,0,1.75v0.1h-1" transform="translate(-1355.88 -430.49)"/>
      <path class="cls-1" d="M1434,433.73h1a0.33,0.33,0,0,1,0,.05s0,0.05,0,.08q0,2.21,0,4.43a0.45,0.45,0,0,1,0,.11h-1v0a0.61,0.61,0,0,1,0-.06q0-2.23,0-4.46a0.34,0.34,0,0,1,0-.11" transform="translate(-1355.88 -430.49)"/>
      <path class="cls-1" d="M1450.57,440.84h-93.83v-9.5h93.83v9.5Zm0-10.35h-94.69v11.2h95.54v-11.2h-0.85Z" transform="translate(-1355.88 -430.49)"/>
    </g>
    <g>
      <path class="cls-1" d="M1371.21,445.81H1372l0.77,2,0.78-2h0.78v2.89h-0.49v-2.4h0l-0.88,2.4h-0.36l-0.88-2.4h0v2.4h-0.49v-2.89Z" transform="translate(-1355.88 -430.49)"/>
      <path class="cls-1" d="M1376.36,448.43h0a0.63,0.63,0,0,1-.27.24,0.85,0.85,0,0,1-.36.08,1,1,0,0,1-.26,0,0.71,0.71,0,0,1-.23-0.11,0.57,0.57,0,0,1-.16-0.18,0.52,0.52,0,0,1-.06-0.26,0.59,0.59,0,0,1,.06-0.27,0.56,0.56,0,0,1,.15-0.19,0.78,0.78,0,0,1,.22-0.12l0.26-.07,0.28,0h0.38v-0.05a0.32,0.32,0,0,0-.13-0.28,0.54,0.54,0,0,0-.32-0.09,0.76,0.76,0,0,0-.29.06,0.73,0.73,0,0,0-.23.15l-0.26-.26a1,1,0,0,1,.38-0.24,1.41,1.41,0,0,1,.45-0.07,1.14,1.14,0,0,1,.35,0,0.78,0.78,0,0,1,.24.12,0.53,0.53,0,0,1,.15.17,0.79,0.79,0,0,1,.07.19,1.06,1.06,0,0,1,0,.19c0,0.06,0,.12,0,0.16v1.13h-0.44v-0.27Zm0-.61H1376l-0.24,0a0.55,0.55,0,0,0-.19.09,0.2,0.2,0,0,0-.08.17,0.21,0.21,0,0,0,0,.12,0.28,0.28,0,0,0,.08.08l0.11,0h0.12a0.51,0.51,0,0,0,.37-0.12,0.44,0.44,0,0,0,.12-0.33v-0.11Z" transform="translate(-1355.88 -430.49)"/>
      <path class="cls-1" d="M1379.56,446.74v1.79a1.65,1.65,0,0,1-.07.48,0.93,0.93,0,0,1-.2.36,0.91,0.91,0,0,1-.35.23,1.35,1.35,0,0,1-.49.08,1.89,1.89,0,0,1-.52-0.07,1.16,1.16,0,0,1-.45-0.25l0.29-.4a1.19,1.19,0,0,0,.31.21,0.87,0.87,0,0,0,.37.07,0.79,0.79,0,0,0,.3,0,0.48,0.48,0,0,0,.19-0.13,0.52,0.52,0,0,0,.1-0.21,1.08,1.08,0,0,0,0-.27v-0.14h0a0.65,0.65,0,0,1-.28.21,1,1,0,0,1-.36.07,1,1,0,0,1-.4-0.08,1,1,0,0,1-.31-0.21,0.93,0.93,0,0,1-.2-0.32,1.1,1.1,0,0,1-.07-0.39,1.22,1.22,0,0,1,.07-0.4,0.94,0.94,0,0,1,.19-0.33,0.91,0.91,0,0,1,.3-0.22,1,1,0,0,1,.41-0.08,0.93,0.93,0,0,1,.39.08,0.63,0.63,0,0,1,.29.26h0v-0.29h0.47Zm-1,.39a0.63,0.63,0,0,0-.24,0,0.52,0.52,0,0,0-.3.3,0.64,0.64,0,0,0,0,.24,0.56,0.56,0,0,0,0,.22,0.56,0.56,0,0,0,.12.18,0.57,0.57,0,0,0,.18.12,0.58,0.58,0,0,0,.23,0,0.63,0.63,0,0,0,.24,0,0.56,0.56,0,0,0,.18-0.12,0.52,0.52,0,0,0,.12-0.18,0.63,0.63,0,0,0,0-.23A0.54,0.54,0,0,0,1378.51,447.13Z" transform="translate(-1355.88 -430.49)"/>
      <path class="cls-1" d="M1380.25,446.07a0.28,0.28,0,0,1,.09-0.21,0.3,0.3,0,0,1,.22-0.09,0.32,0.32,0,0,1,.23.08,0.29,0.29,0,0,1,0,.42,0.32,0.32,0,0,1-.23.08,0.3,0.3,0,0,1-.22-0.09A0.28,0.28,0,0,1,1380.25,446.07Zm0.07,0.67h0.49v2h-0.49v-2Z" transform="translate(-1355.88 -430.49)"/>
      <path class="cls-1" d="M1382.92,447.33a0.78,0.78,0,0,0-.18-0.14,0.39,0.39,0,0,0-.19-0.05,0.56,0.56,0,0,0-.42.18,0.55,0.55,0,0,0-.11.19,0.65,0.65,0,0,0,0,.44,0.55,0.55,0,0,0,.11.19,0.56,0.56,0,0,0,.42.18,0.49,0.49,0,0,0,.21,0,0.46,0.46,0,0,0,.17-0.14l0.33,0.35a0.76,0.76,0,0,1-.17.13l-0.19.09-0.19,0h-0.16a1.18,1.18,0,0,1-.42-0.07,1,1,0,0,1-.34-0.21,1,1,0,0,1-.23-0.32,1.11,1.11,0,0,1,0-.85,1,1,0,0,1,.23-0.32,1,1,0,0,1,.34-0.21,1.18,1.18,0,0,1,.42-0.07,1.07,1.07,0,0,1,.38.07,0.86,0.86,0,0,1,.33.23Z" transform="translate(-1355.88 -430.49)"/>
      <path class="cls-1" d="M1385,448.43h0a0.63,0.63,0,0,1-.27.24,0.85,0.85,0,0,1-.36.08,1,1,0,0,1-.26,0,0.71,0.71,0,0,1-.23-0.11,0.57,0.57,0,0,1-.16-0.18,0.52,0.52,0,0,1-.06-0.26,0.59,0.59,0,0,1,.06-0.27,0.56,0.56,0,0,1,.15-0.19,0.78,0.78,0,0,1,.22-0.12l0.26-.07,0.28,0H1385v-0.05a0.32,0.32,0,0,0-.13-0.28,0.54,0.54,0,0,0-.32-0.09,0.76,0.76,0,0,0-.29.06,0.73,0.73,0,0,0-.23.15l-0.26-.26a1,1,0,0,1,.38-0.24,1.41,1.41,0,0,1,.45-0.07,1.14,1.14,0,0,1,.35,0,0.78,0.78,0,0,1,.24.12,0.53,0.53,0,0,1,.15.17,0.79,0.79,0,0,1,.07.19,1.06,1.06,0,0,1,0,.19c0,0.06,0,.12,0,0.16v1.13H1385v-0.27Zm0-.61h-0.33l-0.24,0a0.55,0.55,0,0,0-.19.09,0.2,0.2,0,0,0-.08.17,0.21,0.21,0,0,0,0,.12,0.28,0.28,0,0,0,.08.08l0.11,0h0.12a0.51,0.51,0,0,0,.37-0.12,0.44,0.44,0,0,0,.12-0.33v-0.11Z" transform="translate(-1355.88 -430.49)"/>
      <path class="cls-1" d="M1386.16,445.61h0.49v3.09h-0.49v-3.09Z" transform="translate(-1355.88 -430.49)"/>
      <path class="cls-1" d="M1390.86,446.49a0.86,0.86,0,0,0-.31-0.23,0.83,0.83,0,0,0-.3-0.06,1,1,0,0,0-.41.08,0.93,0.93,0,0,0-.31.22,1,1,0,0,0-.2.33,1.13,1.13,0,0,0-.07.4,1.24,1.24,0,0,0,.07.43,1,1,0,0,0,.2.34,0.94,0.94,0,0,0,.31.22,1,1,0,0,0,.41.08,0.75,0.75,0,0,0,.34-0.08,0.93,0.93,0,0,0,.31-0.27l0.42,0.3a1.16,1.16,0,0,1-.48.39,1.49,1.49,0,0,1-.6.12,1.69,1.69,0,0,1-.61-0.11,1.38,1.38,0,0,1-.8-0.78,1.6,1.6,0,0,1-.11-0.62,1.68,1.68,0,0,1,.11-0.63,1.42,1.42,0,0,1,.32-0.48,1.39,1.39,0,0,1,.48-0.31,1.69,1.69,0,0,1,.61-0.11,1.41,1.41,0,0,1,.55.1,1.27,1.27,0,0,1,.47.35Z" transform="translate(-1355.88 -430.49)"/>
      <path class="cls-1" d="M1392.33,447h0a0.57,0.57,0,0,1,.2-0.22,0.65,0.65,0,0,1,.37-0.1,0.77,0.77,0,0,1,.33.07,0.63,0.63,0,0,1,.22.17,0.65,0.65,0,0,1,.12.25,1.13,1.13,0,0,1,0,.29v1.24h-0.49v-1q0-.08,0-0.18a0.65,0.65,0,0,0,0-.19,0.35,0.35,0,0,0-.11-0.15,0.31,0.31,0,0,0-.2-0.06,0.47,0.47,0,0,0-.21,0,0.4,0.4,0,0,0-.14.11,0.44,0.44,0,0,0-.08.16,0.71,0.71,0,0,0,0,.19v1.07h-0.49v-3.09h0.49V447Z" transform="translate(-1355.88 -430.49)"/>
      <path class="cls-1" d="M1394.29,447.72a1,1,0,0,1,.08-0.42,1,1,0,0,1,.23-0.32,1,1,0,0,1,.34-0.21,1.22,1.22,0,0,1,.83,0,1,1,0,0,1,.34.21,1,1,0,0,1,.23.32,1.11,1.11,0,0,1,0,.85,1,1,0,0,1-.23.32,1,1,0,0,1-.34.21,1.22,1.22,0,0,1-.83,0,1,1,0,0,1-.34-0.21,1,1,0,0,1-.23-0.32A1,1,0,0,1,1394.29,447.72Zm0.49,0a0.64,0.64,0,0,0,0,.22,0.55,0.55,0,0,0,.11.19,0.58,0.58,0,0,0,.85,0,0.55,0.55,0,0,0,.11-0.19,0.65,0.65,0,0,0,0-.44,0.56,0.56,0,0,0-.11-0.19,0.58,0.58,0,0,0-.85,0,0.55,0.55,0,0,0-.11.19A0.64,0.64,0,0,0,1394.78,447.72Z" transform="translate(-1355.88 -430.49)"/>
      <path class="cls-1" d="M1398.42,447.33a0.78,0.78,0,0,0-.18-0.14,0.39,0.39,0,0,0-.19-0.05,0.56,0.56,0,0,0-.42.18,0.55,0.55,0,0,0-.11.19,0.65,0.65,0,0,0,0,.44,0.55,0.55,0,0,0,.11.19,0.56,0.56,0,0,0,.42.18,0.49,0.49,0,0,0,.21,0,0.46,0.46,0,0,0,.17-0.14l0.33,0.35a0.76,0.76,0,0,1-.17.13l-0.19.09-0.19,0H1398a1.18,1.18,0,0,1-.42-0.07,1,1,0,0,1-.34-0.21,1,1,0,0,1-.23-0.32,1.11,1.11,0,0,1,0-.85,1,1,0,0,1,.23-0.32,1,1,0,0,1,.34-0.21,1.18,1.18,0,0,1,.42-0.07,1.07,1.07,0,0,1,.38.07,0.86,0.86,0,0,1,.33.23Z" transform="translate(-1355.88 -430.49)"/>
      <path class="cls-1" d="M1399.16,447.72a1,1,0,0,1,.08-0.42,1,1,0,0,1,.23-0.32,1,1,0,0,1,.34-0.21,1.22,1.22,0,0,1,.83,0,1,1,0,0,1,.34.21,1,1,0,0,1,.23.32,1.11,1.11,0,0,1,0,.85,1,1,0,0,1-.23.32,1,1,0,0,1-.34.21,1.22,1.22,0,0,1-.83,0,1,1,0,0,1-.34-0.21,1,1,0,0,1-.23-0.32A1,1,0,0,1,1399.16,447.72Zm0.49,0a0.64,0.64,0,0,0,0,.22,0.55,0.55,0,0,0,.11.19,0.58,0.58,0,0,0,.85,0,0.55,0.55,0,0,0,.11-0.19,0.65,0.65,0,0,0,0-.44,0.56,0.56,0,0,0-.11-0.19,0.58,0.58,0,0,0-.85,0,0.55,0.55,0,0,0-.11.19A0.64,0.64,0,0,0,1399.65,447.72Z" transform="translate(-1355.88 -430.49)"/>
      <path class="cls-1" d="M1402,445.61h0.49v3.09H1402v-3.09Z" transform="translate(-1355.88 -430.49)"/>
      <path class="cls-1" d="M1404.44,448.43h0a0.63,0.63,0,0,1-.27.24,0.84,0.84,0,0,1-.36.08,1,1,0,0,1-.26,0,0.71,0.71,0,0,1-.23-0.11,0.57,0.57,0,0,1-.16-0.18,0.52,0.52,0,0,1-.06-0.26,0.59,0.59,0,0,1,.06-0.27,0.56,0.56,0,0,1,.15-0.19,0.78,0.78,0,0,1,.22-0.12l0.26-.07,0.28,0h0.38v-0.05a0.32,0.32,0,0,0-.13-0.28,0.54,0.54,0,0,0-.32-0.09,0.76,0.76,0,0,0-.29.06,0.73,0.73,0,0,0-.23.15l-0.26-.26a1,1,0,0,1,.38-0.24,1.41,1.41,0,0,1,.45-0.07,1.14,1.14,0,0,1,.35,0,0.77,0.77,0,0,1,.24.12,0.54,0.54,0,0,1,.14.17,0.79,0.79,0,0,1,.07.19,1.08,1.08,0,0,1,0,.19c0,0.06,0,.12,0,0.16v1.13h-0.44v-0.27Zm0-.61h-0.33l-0.24,0a0.55,0.55,0,0,0-.19.09,0.2,0.2,0,0,0-.08.17,0.21,0.21,0,0,0,0,.12,0.28,0.28,0,0,0,.08.08l0.11,0h0.12a0.51,0.51,0,0,0,.37-0.12,0.44,0.44,0,0,0,.12-0.33v-0.11Z" transform="translate(-1355.88 -430.49)"/>
      <path class="cls-1" d="M1405.39,447.16v-0.42h0.4v-0.57h0.49v0.57h0.54v0.42h-0.54V448a0.43,0.43,0,0,0,.06.23,0.24,0.24,0,0,0,.22.09h0.14a0.3,0.3,0,0,0,.12,0v0.41a0.63,0.63,0,0,1-.19.05h-0.2a1,1,0,0,1-.32,0,0.42,0.42,0,0,1-.2-0.13,0.49,0.49,0,0,1-.1-0.22,1.54,1.54,0,0,1,0-.3v-0.9h-0.4Z" transform="translate(-1355.88 -430.49)"/>
      <path class="cls-1" d="M1407.8,447.89a0.5,0.5,0,0,0,.17.34,0.54,0.54,0,0,0,.36.12,0.59,0.59,0,0,0,.31-0.08,0.86,0.86,0,0,0,.22-0.19l0.35,0.27a1,1,0,0,1-.38.3,1.13,1.13,0,0,1-.45.09,1.18,1.18,0,0,1-.42-0.07,1,1,0,0,1-.34-0.21,1,1,0,0,1-.23-0.32,1.11,1.11,0,0,1,0-.85,1,1,0,0,1,.23-0.32,1,1,0,0,1,.34-0.21,1.18,1.18,0,0,1,.42-0.07,1,1,0,0,1,.37.07,0.8,0.8,0,0,1,.29.21,1,1,0,0,1,.19.33,1.41,1.41,0,0,1,.07.46v0.13h-1.5Zm1-.37a0.46,0.46,0,0,0-.13-0.34,0.51,0.51,0,0,0-.36-0.12,0.48,0.48,0,0,0-.35.13,0.57,0.57,0,0,0-.16.34h1Z" transform="translate(-1355.88 -430.49)"/>
      <path class="cls-1" d="M1411.42,445.81h1.92v0.47h-1.4V447h1.33v0.47h-1.33v0.78h1.47v0.47h-2v-2.89Z" transform="translate(-1355.88 -430.49)"/>
      <path class="cls-1" d="M1414.58,447.65l-0.68-.91h0.6l0.39,0.59,0.42-.59h0.56l-0.67.91,0.79,1.05h-0.6l-0.51-.7-0.51.7h-0.58Z" transform="translate(-1355.88 -430.49)"/>
      <path class="cls-1" d="M1416.47,446.74h0.47V447h0a0.63,0.63,0,0,1,.29-0.26,0.93,0.93,0,0,1,.39-0.08,1,1,0,0,1,.4.08,0.91,0.91,0,0,1,.31.22,0.94,0.94,0,0,1,.19.33,1.22,1.22,0,0,1,.07.4,1.16,1.16,0,0,1-.07.4,1,1,0,0,1-.19.33,0.89,0.89,0,0,1-.3.22,0.92,0.92,0,0,1-.38.08,0.94,0.94,0,0,1-.24,0l-0.19-.07-0.14-.1-0.09-.1h0v1.18h-0.49v-2.89Zm1.63,1a0.64,0.64,0,0,0,0-.22,0.55,0.55,0,0,0-.11-0.19,0.58,0.58,0,0,0-.85,0,0.55,0.55,0,0,0-.11.19,0.65,0.65,0,0,0,0,.44,0.55,0.55,0,0,0,.11.19,0.58,0.58,0,0,0,.85,0,0.55,0.55,0,0,0,.11-0.19A0.64,0.64,0,0,0,1418.1,447.72Z" transform="translate(-1355.88 -430.49)"/>
      <path class="cls-1" d="M1419.64,447.89a0.5,0.5,0,0,0,.17.34,0.54,0.54,0,0,0,.36.12,0.59,0.59,0,0,0,.31-0.08,0.86,0.86,0,0,0,.22-0.19l0.35,0.27a1,1,0,0,1-.38.3,1.13,1.13,0,0,1-.45.09,1.18,1.18,0,0,1-.42-0.07,1,1,0,0,1-.34-0.21,1,1,0,0,1-.23-0.32,1.11,1.11,0,0,1,0-.85,1,1,0,0,1,.23-0.32,1,1,0,0,1,.34-0.21,1.18,1.18,0,0,1,.42-0.07,1,1,0,0,1,.37.07,0.8,0.8,0,0,1,.29.21,1,1,0,0,1,.19.33,1.41,1.41,0,0,1,.07.46v0.13h-1.5Zm1-.37a0.46,0.46,0,0,0-.13-0.34,0.51,0.51,0,0,0-.36-0.12,0.48,0.48,0,0,0-.35.13,0.57,0.57,0,0,0-.16.34h1Z" transform="translate(-1355.88 -430.49)"/>
      <path class="cls-1" d="M1421.8,446.74h0.49V447h0a0.61,0.61,0,0,1,.23-0.27,0.64,0.64,0,0,1,.35-0.09H1423l0.09,0v0.47l-0.12,0h-0.12a0.53,0.53,0,0,0-.28.06,0.51,0.51,0,0,0-.16.15,0.48,0.48,0,0,0-.07.16,0.62,0.62,0,0,0,0,.12v1.05h-0.49v-2Z" transform="translate(-1355.88 -430.49)"/>
      <path class="cls-1" d="M1423.53,446.07a0.28,0.28,0,0,1,.09-0.21,0.3,0.3,0,0,1,.22-0.09,0.32,0.32,0,0,1,.23.08,0.29,0.29,0,0,1,0,.42,0.32,0.32,0,0,1-.23.08,0.3,0.3,0,0,1-.22-0.09A0.28,0.28,0,0,1,1423.53,446.07Zm0.07,0.67h0.49v2h-0.49v-2Z" transform="translate(-1355.88 -430.49)"/>
      <path class="cls-1" d="M1425.25,447.89a0.5,0.5,0,0,0,.17.34,0.54,0.54,0,0,0,.36.12,0.59,0.59,0,0,0,.31-0.08,0.86,0.86,0,0,0,.22-0.19l0.35,0.27a1,1,0,0,1-.38.3,1.13,1.13,0,0,1-.45.09,1.18,1.18,0,0,1-.42-0.07,1,1,0,0,1-.34-0.21,1,1,0,0,1-.23-0.32,1.11,1.11,0,0,1,0-.85,1,1,0,0,1,.23-0.32,1,1,0,0,1,.34-0.21,1.18,1.18,0,0,1,.42-0.07,1,1,0,0,1,.37.07,0.8,0.8,0,0,1,.29.21,1,1,0,0,1,.19.33,1.41,1.41,0,0,1,.07.46v0.13h-1.5Zm1-.37a0.46,0.46,0,0,0-.13-0.34,0.51,0.51,0,0,0-.36-0.12,0.48,0.48,0,0,0-.35.13,0.57,0.57,0,0,0-.16.34h1Z" transform="translate(-1355.88 -430.49)"/>
      <path class="cls-1" d="M1427.41,446.74h0.47v0.31h0a0.69,0.69,0,0,1,.21-0.26,0.63,0.63,0,0,1,.39-0.11,0.77,0.77,0,0,1,.33.07,0.63,0.63,0,0,1,.22.17,0.65,0.65,0,0,1,.12.25,1.12,1.12,0,0,1,0,.29v1.24h-0.49v-1q0-.08,0-0.18a0.66,0.66,0,0,0,0-.19,0.35,0.35,0,0,0-.11-0.15,0.31,0.31,0,0,0-.2-0.06,0.47,0.47,0,0,0-.21,0,0.4,0.4,0,0,0-.14.11,0.44,0.44,0,0,0-.08.16,0.71,0.71,0,0,0,0,.19v1.07h-0.49v-2Z" transform="translate(-1355.88 -430.49)"/>
      <path class="cls-1" d="M1431.3,447.33a0.78,0.78,0,0,0-.18-0.14,0.39,0.39,0,0,0-.19-0.05,0.56,0.56,0,0,0-.42.18,0.56,0.56,0,0,0-.11.19,0.65,0.65,0,0,0,0,.44,0.55,0.55,0,0,0,.11.19,0.56,0.56,0,0,0,.42.18,0.48,0.48,0,0,0,.21,0,0.46,0.46,0,0,0,.17-0.14l0.33,0.35a0.76,0.76,0,0,1-.17.13l-0.19.09-0.19,0h-0.16a1.18,1.18,0,0,1-.42-0.07,1,1,0,0,1-.34-0.21,1,1,0,0,1-.23-0.32,1.11,1.11,0,0,1,0-.85,1,1,0,0,1,.23-0.32,1,1,0,0,1,.34-0.21,1.18,1.18,0,0,1,.42-0.07,1.07,1.07,0,0,1,.38.07,0.86,0.86,0,0,1,.33.23Z" transform="translate(-1355.88 -430.49)"/>
      <path class="cls-1" d="M1432.52,447.89a0.5,0.5,0,0,0,.17.34,0.54,0.54,0,0,0,.36.12,0.59,0.59,0,0,0,.31-0.08,0.86,0.86,0,0,0,.22-0.19l0.35,0.27a1,1,0,0,1-.38.3,1.13,1.13,0,0,1-.45.09,1.18,1.18,0,0,1-.42-0.07,1,1,0,0,1-.34-0.21,1,1,0,0,1-.23-0.32,1.11,1.11,0,0,1,0-.85,1,1,0,0,1,.23-0.32,1,1,0,0,1,.34-0.21,1.18,1.18,0,0,1,.42-0.07,1,1,0,0,1,.37.07,0.8,0.8,0,0,1,.29.21,1,1,0,0,1,.19.33,1.41,1.41,0,0,1,.07.46v0.13h-1.5Zm1-.37a0.46,0.46,0,0,0-.13-0.34,0.51,0.51,0,0,0-.36-0.12,0.48,0.48,0,0,0-.35.13,0.57,0.57,0,0,0-.16.34h1Z" transform="translate(-1355.88 -430.49)"/>
      <path class="cls-1" d="M1435.72,447.28a0.45,0.45,0,0,0-.38-0.2,0.41,0.41,0,0,0-.19,0,0.17,0.17,0,0,0-.09.16,0.14,0.14,0,0,0,.08.13l0.2,0.07,0.26,0.06a1,1,0,0,1,.26.09,0.56,0.56,0,0,1,.2.17,0.52,0.52,0,0,1,.08.3,0.55,0.55,0,0,1-.08.3,0.59,0.59,0,0,1-.2.19,0.87,0.87,0,0,1-.27.11,1.43,1.43,0,0,1-.3,0,1.3,1.3,0,0,1-.42-0.07,0.8,0.8,0,0,1-.34-0.24l0.33-.31a0.92,0.92,0,0,0,.2.17,0.49,0.49,0,0,0,.26.07h0.11l0.11,0a0.25,0.25,0,0,0,.08-0.07,0.18,0.18,0,0,0,0-.25,0.69,0.69,0,0,0-.2-0.08l-0.26-.06a1,1,0,0,1-.26-0.09,0.54,0.54,0,0,1-.2-0.17,0.49,0.49,0,0,1-.08-0.29,0.57,0.57,0,0,1,.07-0.28,0.59,0.59,0,0,1,.18-0.2,0.77,0.77,0,0,1,.25-0.11,1.16,1.16,0,0,1,.68,0,0.63,0.63,0,0,1,.31.23Z" transform="translate(-1355.88 -430.49)"/>
    </g>
  </g>
</svg>
