<svg id="Layer_1" data-name="Layer 1" xmlns="http://www.w3.org/2000/svg" viewBox="0 0 57.54 17.98">
  <defs>
    <style>
      .cls-1 {
        fill: #e8aa00;
        fill-rule: evenodd;
      }
    </style>
  </defs>
  <title>godiva_logo</title>
  <path class="cls-1" d="M179.06,143.54l-0.18-.51-1.07-2.81a0.11,0.11,0,0,0-.11-0.07H175a0.13,0.13,0,0,0-.12.1l-0.72,2-0.48,1.36h-0.39c-0.13,0-.36,0-0.51,0l0.53-1.36,2.91-7.66c0.15-.41.26-0.48,0.33-0.48a0.59,0.59,0,0,1,.34.47c0.18,0.47,2.14,5.53,2.89,7.41l0.61,1.62-1.36,0m-1.5-4-1.15-3.33c0-.1-0.09-0.1-0.14,0l-1.11,3.33c0,0.06,0,.09,0,0.09h2.31c0.06,0,.06,0,0-0.09m-7.53-.46c-0.78,1.79-1.33,3.14-1.61,3.75a1.64,1.64,0,0,1-.55.94c-0.15,0-.23-0.17-0.47-0.77l-3.07-7.57-0.47-1.17c0.23,0,.64,0,0.78,0l0.78,0s0.32,1,.5,1.51l2.27,6c0.72-1.66,2.29-5.6,2.56-6.49l0.32-1,0.54,0h0.45l-0.59,1.46c-0.14.35-.78,1.82-1.44,3.35m-25.61-.36a4.94,4.94,0,0,1-5,5.06,4.7,4.7,0,0,1-4.87-4.86,4.86,4.86,0,0,1,4.95-4.83c2.78,0,5,1.76,5,4.63m-5-4.13c-2.06,0-3.49,1.37-3.49,4s1.61,4.65,3.84,4.65c1.11,0,3.29-.71,3.29-4.15,0-2.67-1.68-4.48-3.64-4.48m-7.89,8c0,0.56,0,.58-0.16.67a6.68,6.68,0,0,1-2.74.56,6.14,6.14,0,0,1-4.23-1.38,4.92,4.92,0,0,1-1.47-3.46,4.67,4.67,0,0,1,2.08-4.06,6.56,6.56,0,0,1,3.44-.78,11.26,11.26,0,0,1,1.95.21,6.11,6.11,0,0,0,1,.12c0.12,0,.15.06,0.15,0.11a6.59,6.59,0,0,0-.09,1.33c0,0.14-.13.08-0.29-0.07,0,0-.16-0.12-0.28-0.23a4,4,0,0,0-2.85-1,3.71,3.71,0,0,0-2.49.75,4,4,0,0,0-1.25,3.14,5,5,0,0,0,1.31,3.42,4.27,4.27,0,0,0,3.11,1.27,3,3,0,0,0,1.29-.21,0.45,0.45,0,0,0,.25-0.43v-2.1c0-1,0-1.48,0-1.48,0.21,0,.4,0,0.64,0s0.45,0,.66,0v0.92c0,0.4,0,.77,0,1.28v1.38Zm6.5,7.88,0.94-3a1.75,1.75,0,0,0,.07-0.32c0-.15-0.17-0.18-0.34-0.18v-0.12h1.19a1,1,0,0,1,1.19.94,1.14,1.14,0,0,1-1,1.07h0a1,1,0,0,1,.62.92,1.18,1.18,0,0,1-1.29,1.07h-1.88v-0.15c0.26,0,.38,0,0.47-0.28m2.53-2.77a0.57,0.57,0,0,0-.62-0.69,0.32,0.32,0,0,0-.36.28l-0.47,1.54h0.33a1,1,0,0,0,1.12-1.14m-1.51,3a1,1,0,0,0,1.14-1.07,0.68,0.68,0,0,0-.74-0.68l-0.39,0-0.55,1.73Zm3.53-2.47a0.4,0.4,0,0,1,.44.36,1,1,0,0,1-.59.75,8.62,8.62,0,0,1-.81.43,2.34,2.34,0,0,0-.15.65c0,0.15-.05.27,0.15,0.27a1,1,0,0,0,.81-0.62l0.09,0a1.41,1.41,0,0,1-1,.78,0.51,0.51,0,0,1-.51-0.56c0-.65.85-2.11,1.58-2.11m0.12,0.34a0.13,0.13,0,0,0-.15-0.18c-0.26,0-.49.31-0.85,1.17a1.56,1.56,0,0,0,1-1m1.52-1.3a0.43,0.43,0,0,0,.05-0.26,0.32,0.32,0,0,0-.27-0.07l0-.13,0.79,0L143.45,150a1.3,1.3,0,0,0-.14.46c0,0.07,0,0,.06,0a1.2,1.2,0,0,0,.5-0.48l0.08,0.08a1.86,1.86,0,0,1-1,.8,0.18,0.18,0,0,1-.14-0.19,1.57,1.57,0,0,1,.12-0.46Zm0.33,3.58h0a0.31,0.31,0,0,1-.23-0.34,0.6,0.6,0,0,1,.42-0.48,0.83,0.83,0,0,1-.24-0.71,1.08,1.08,0,0,1,1.1-1,0.5,0.5,0,0,1,.46.2,0.72,0.72,0,0,1,.47-0.19,0.2,0.2,0,0,1,.22.17,0.19,0.19,0,0,1-.16.15,0.31,0.31,0,0,1-.17-0.07,0.16,0.16,0,0,0-.13-0.06,0.17,0.17,0,0,0-.11.08,0.91,0.91,0,0,1,0,.27,1.32,1.32,0,0,1-1.1,1.28,0.82,0.82,0,0,1-.23,0,0.26,0.26,0,0,0-.22.22c0,0.1,0,.1.22,0.19s0.61,0.16.89,0.3a0.65,0.65,0,0,1,.4.54,1.12,1.12,0,0,1-1.23.75,1,1,0,0,1-1.14-.6,0.83,0.83,0,0,1,.77-0.62m0.51-.9c0.47,0,.8-0.94.82-1.28a0.23,0.23,0,0,0-.25-0.3,1.19,1.19,0,0,0-.8,1.17c0,0.24,0,.4.23,0.4m-0.12,2a0.81,0.81,0,0,0,.93-0.45c0-.2-0.14-0.25-0.4-0.35s-0.59-.16-0.75-0.21c-0.42.13-.6,0.25-0.6,0.56s0.44,0.45.81,0.45m2.28-3.27c0-.05,0-0.07,0-0.07a1.63,1.63,0,0,0-.55.53l-0.07-.08a1.6,1.6,0,0,1,1-.76,0.21,0.21,0,0,1,.2.17,6.1,6.1,0,0,1-.53,1.28,4.33,4.33,0,0,0-.35.76s0,0.1.07,0.09a1.07,1.07,0,0,0,.51-0.47l0.08,0.06a1.67,1.67,0,0,1-1,.76,0.16,0.16,0,0,1-.15-0.19,3.34,3.34,0,0,1,.48-1.23,4,4,0,0,0,.34-0.84m0.17-1.61a0.27,0.27,0,0,1,.26-0.25,0.28,0.28,0,0,1,.3.27,0.32,0.32,0,0,1-.26.3,0.26,0.26,0,0,1-.29-0.32m1.25,1.57s0-.06-0.05-0.06a1.2,1.2,0,0,0-.54.46l-0.07,0a1.79,1.79,0,0,1,.9-0.72,0.22,0.22,0,0,1,.21.2,5.48,5.48,0,0,1-.48,1.15,2.85,2.85,0,0,0-.36.93,0.07,0.07,0,0,0,.08.08,2.8,2.8,0,0,0,1.14-1.34,6.86,6.86,0,0,0,.46-0.92h0.41L149.59,150a1.29,1.29,0,0,0-.15.43s0,0.06,0,.06a1,1,0,0,0,.56-0.57l0.07,0.08a1.81,1.81,0,0,1-.88.87,0.19,0.19,0,0,1-.22-0.21,2,2,0,0,1,.23-0.8l0-.07a1.65,1.65,0,0,1-1.22,1.09,0.31,0.31,0,0,1-.27-0.35,4.5,4.5,0,0,1,.43-1.07,8.29,8.29,0,0,0,.41-0.9m2.52,0.06s0-.15,0-0.15a1.45,1.45,0,0,0-.57.63l-0.06-.08a1.47,1.47,0,0,1,.89-0.82c0.19,0,.36.11,0,0.91h0a1.66,1.66,0,0,1,1.13-.91,0.23,0.23,0,0,1,.25.22,1.33,1.33,0,0,1-.15.7h0a1.53,1.53,0,0,1,1.15-.92,0.25,0.25,0,0,1,.25.27,3.17,3.17,0,0,1-.43,1.09,2.34,2.34,0,0,0-.34.82c0,0.05,0,.06.05,0.06a0.8,0.8,0,0,0,.46-0.39l0.11,0.08a1.76,1.76,0,0,1-.92.74,0.27,0.27,0,0,1-.2-0.24,3.53,3.53,0,0,1,.42-1,3.28,3.28,0,0,0,.42-1c0-.08,0-0.13-0.09-0.13a2.39,2.39,0,0,0-1.15,1.3c-0.16.29-.36,0.67-0.5,1h-0.38l0.49-1.16a3.68,3.68,0,0,0,.35-1c0-.06,0-0.11-0.09-0.11a2.56,2.56,0,0,0-1.11,1.28,8.69,8.69,0,0,0-.49,1h-0.38c0.1-.21.3-0.73,0.5-1.2s0.36-.85.4-1m-3.62-5.1,0-.87c0.06-.52.06-1.5,0.06-2.68v-2.17c0-1.93,0-2.27,0-2.67v-0.88c0.15,0,1.6,0,2.34,0,1.22,0,3.59-.11,5.06,1.41a4.42,4.42,0,0,1,1.2,3.14,5,5,0,0,1-1.33,3.49,5.2,5.2,0,0,1-3.85,1.42c-1.06,0-3.34-.15-3.47-0.15m6.3-1.42a4.32,4.32,0,0,0,1-3,4.43,4.43,0,0,0-1.18-3.12,4.71,4.71,0,0,0-3.9-1.31,2.36,2.36,0,0,0-.68.09,0.23,0.23,0,0,0-.15.25c0,0.42,0,1.6,0,2.55v1.53c0,1.31,0,2.45,0,2.68a2.11,2.11,0,0,0,.18.86c0.16,0.24.48,0.49,1.93,0.49a3.73,3.73,0,0,0,2.79-1.07m2.3,8.28,1-3-0.48.14-0.09-.09a8.45,8.45,0,0,0,1.19-.62l0,0.1-1.19,3.43a0.6,0.6,0,0,0,0,.2c0,0.1,0,.13.36,0.14v0.11h-1.3V150.7c0.32,0,.4,0,0.51-0.31m3.15-1h0a0.67,0.67,0,0,1-.6.11,0.73,0.73,0,0,1-.59-0.86,1.9,1.9,0,0,1,1.56-1.71c0.48,0,.65.41,0.65,1a3.37,3.37,0,0,1-2.55,3l-0.06-.11a4.23,4.23,0,0,0,1.58-1.38m0.68-1.85c0-.36-0.06-0.48-0.29-0.48a1.85,1.85,0,0,0-1.13,1.7c0,0.41.16,0.58,0.39,0.58,0.61,0,1-1.29,1-1.8m-0.65-12.38-0.07-.91c0.17,0,.49,0,0.74,0s0.54,0,.68,0l0,0.91c0,0.4,0,.74,0,2.67V140c0,1.19,0,2.16.06,2.68l0.08,0.9c-0.27,0-.42,0-0.78,0s-0.52.05-.74,0l0-.9c0.06-.52.06-1.5,0.06-2.68v-2.17c0-1.93,0-2.27,0-2.67m2.56,13.33a1.19,1.19,0,0,0,.43-0.89,0.4,0.4,0,0,0-.47-0.46,1.32,1.32,0,0,0-1.05.69l-0.09-.07a1.65,1.65,0,0,1,1.36-.85,0.64,0.64,0,0,1,.73.65,1.44,1.44,0,0,1-.52,1,16.39,16.39,0,0,0-1.49,1.16,1.79,1.79,0,0,0-.42.65h1.15c0.33,0,.41,0,0.56-0.33l0.14,0-0.37.77h-1.87a3,3,0,0,1,.68-1.16c0.38-.43.85-0.77,1.24-1.19m3.45-1.53,0.1,0.1a3.32,3.32,0,0,0-1.64,1.42v0a0.7,0.7,0,0,1,.54-0.18,0.67,0.67,0,0,1,.68.79c0,0.46-.55,1.76-1.52,1.76a0.83,0.83,0,0,1-.74-0.94,3.32,3.32,0,0,1,2.58-3m-1.85,3.78c0.56,0,1-1.22,1-1.77,0-.28-0.05-0.49-0.37-0.49-0.72,0-1,1.29-1,1.77s0.14,0.5.36,0.48" transform="translate(-122.89 -134.05)"/>
</svg>
