<svg id="Layer_1" data-name="Layer 1" xmlns="http://www.w3.org/2000/svg" viewBox="0 0 50.93 8.33">
  <defs>
    <style>
      .cls-1 {
        fill: #404042;
      }
    </style>
  </defs>
  <title>tapto</title>
  <g>
    <path class="cls-1" d="M1101.42,528.08l0.76-.13-0.85-4.8-1.39.25,0.12,0.66-0.7.12-0.24-1.37,4.9-.87,0.24,1.36-0.7.12-0.12-.67-1.37.24,0.85,4.8,0.65-.11,0.12,0.7-2.14.38Z" transform="translate(-1099.11 -520.45)"/>
    <path class="cls-1" d="M1109.11,526.87l0.73-.07q0.48-1.54,1-3t1-3q0.76,1.42,1.52,2.81t1.51,2.81l0.74-.07,0.07,0.71-2,.19-0.07-.71,0.5,0-0.46-.85-0.46-.85-2,.19-0.59,1.84,0.51,0,0.07,0.71-2,.19Zm2.93-4.22-0.12-.29a0.27,0.27,0,0,0,0,.06,0.76,0.76,0,0,1,0,.1l0,0.14q-0.09.27-.17,0.53l-0.14.48-0.14.46,1.37-.13Z" transform="translate(-1099.11 -520.45)"/>
    <path class="cls-1" d="M1119.7,526.08h0.41l-0.1-4.88h-0.41v-0.71l1.89,0a2.77,2.77,0,0,1,.68.08,2.38,2.38,0,0,1,.7.29,1.83,1.83,0,0,1,.55.52,1.38,1.38,0,0,1,.23.78,1.75,1.75,0,0,1-.46,1.31,1.91,1.91,0,0,1-1.39.51l-1,0,0,2.1,1,0v0.71l-2.18,0v-0.71Zm1.09-2.85,0.78,0a1.77,1.77,0,0,0,.65-0.12,1.22,1.22,0,0,0,.4-0.26,0.87,0.87,0,0,0,.21-0.34,1.15,1.15,0,0,0,.06-0.36,0.75,0.75,0,0,0-.11-0.37,1.12,1.12,0,0,0-.29-0.31,1.35,1.35,0,0,0-.43-0.21,1.7,1.7,0,0,0-.53-0.07l-0.79,0Z" transform="translate(-1099.11 -520.45)"/>
    <path class="cls-1" d="M1135.49,526.47l0.77,0.07,0.46-4.86-1.41-.13-0.06.67-0.71-.07,0.13-1.38,5,0.47-0.13,1.38-0.71-.07,0.06-.67-1.39-.13-0.46,4.86,0.65,0.06-0.07.71-2.17-.21Z" transform="translate(-1099.11 -520.45)"/>
    <path class="cls-1" d="M1143.65,525a3.14,3.14,0,0,1,.47-1.18,3.26,3.26,0,0,1,2-1.4,3.17,3.17,0,0,1,2.46.44,3.29,3.29,0,0,1,1.4,2,3.16,3.16,0,0,1-.44,2.46,3.25,3.25,0,0,1-2,1.38,3.22,3.22,0,0,1-2.46-.44,3.22,3.22,0,0,1-1.38-2A3.13,3.13,0,0,1,1143.65,525Zm0.74,0.13a2.44,2.44,0,0,0,0,1,2.48,2.48,0,0,0,.38.87,2.57,2.57,0,0,0,.68.66,2.45,2.45,0,0,0,1.9.34,2.57,2.57,0,0,0,.87-0.39,2.48,2.48,0,0,0,.66-0.68,2.54,2.54,0,0,0,.34-1.91,2.51,2.51,0,0,0-1.07-1.54,2.45,2.45,0,0,0-1.9-.34,2.51,2.51,0,0,0-1.53,1.08A2.43,2.43,0,0,0,1144.38,525.08Z" transform="translate(-1099.11 -520.45)"/>
  </g>
</svg>
