
<svg xmlns="http://www.w3.org/2000/svg">

	<symbol id="cart" viewBox="0 0 18 16">
		<circle cx="5" cy="15" r="1"></circle>
		<circle cx="15" cy="15" r="1"></circle>
		<path d="M5.58158846,10 L4.76340664,11.5 L17.25,11.5 C17.6642136,11.5 18,11.8357864 18,12.25 C18,12.6642136 17.6642136,13 17.25,13 L3.5,13 C2.93070565,13 2.56897051,12.3906419 2.84157832,11.8908609 L4.24058874,9.32600847 L1.93882154,1.5 L0.75,1.5 C0.335786438,1.5 0,1.16421356 0,0.75 C0,0.335786438 0.335786438,0 0.75,0 L2.5,0 C2.83270641,0 3.12564558,0.219188201 3.21952413,0.538375257 L5.56117846,8.5 L14.9375,8.5 L16.25,4 L7.5,4 C7.08578644,4 6.75,3.66421356 6.75,3.25 C6.75,2.83578644 7.08578644,2.5 7.5,2.5 L17.25,2.5 C17.75,2.5 18.11,2.98 17.97,3.46 L16.22,9.46 C16.1266667,9.78 15.8333333,10 15.5,10 L5.58158846,10 Z"></path>
	</symbol>
	<symbol id="cart-updated" viewBox="0 0 20 20">
	<g>
		<path fill="#3C3C3B" d="M6.2,13.2h11c1.2,0,2.3-1,2.3-2.3V6.2c0,0,0,0,0,0c0,0,0,0,0,0c0,0,0,0,0,0c0,0,0,0,0,0c0,0,0,0,0,0
			c0,0,0,0,0,0c0,0,0,0,0,0c0,0,0,0,0,0l0,0c0,0,0,0,0,0c0,0,0,0,0,0c0,0,0,0,0,0c0,0,0,0,0,0c0,0,0,0,0,0c0,0,0,0,0,0l0,0
			c0,0,0,0,0,0c0,0,0,0,0,0c0,0,0,0,0,0c0,0,0,0,0,0l0,0l0,0c0,0,0,0,0,0c0,0,0,0,0,0c0,0,0,0,0,0c0,0,0,0,0,0c0,0,0,0,0,0L5.1,3.8
			V1.9c0,0,0,0,0-0.1c0,0,0,0,0,0c0,0,0,0,0,0c0,0,0,0,0,0c0,0,0,0,0,0l0,0c0,0,0,0,0,0c0,0,0,0,0,0c0,0,0,0,0,0c0,0,0,0,0,0
			c0,0,0,0,0,0c0,0,0,0,0,0c0,0,0,0,0,0l0,0l0,0c0,0,0,0,0,0c0,0,0,0,0,0c0,0,0,0,0,0c0,0,0,0,0,0c0,0,0,0,0,0c0,0,0,0-0.1,0l-3-1.3
			C1.4,0,1.1,0.1,1,0.4C0.8,0.7,1,1,1.3,1.1l2.7,1.1v12.1c0,1.1,0.9,2.1,2,2.2c-0.2,0.3-0.3,0.7-0.3,1.1c0,1.2,1,2.2,2.2,2.2
			s2.2-1,2.2-2.2c0-0.4-0.1-0.8-0.3-1.1h5c-0.2,0.3-0.3,0.7-0.3,1.1c0,1.2,1,2.2,2.2,2.2c1.2,0,2.2-1,2.2-2.2s-1-2.2-2.2-2.2H6.2
			C5.6,15.5,5,15,5,14.4v-1.5C5.4,13.1,5.8,13.2,6.2,13.2L6.2,13.2z M9,17.8c0,0.6-0.5,1.1-1.1,1.1c-0.6,0-1.1-0.5-1.1-1.1
			c0-0.6,0.5-1.1,1.1-1.1C8.5,16.6,9,17.1,9,17.8L9,17.8z M17.8,17.8c0,0.6-0.5,1.1-1.1,1.1c-0.6,0-1.1-0.5-1.1-1.1
			c0-0.6,0.5-1.1,1.1-1.1C17.3,16.6,17.8,17.1,17.8,17.8L17.8,17.8z M17.2,12.1h-11c-0.6,0-1.2-0.5-1.2-1.2v-6l13.3,1.8v4.1
			C18.4,11.6,17.8,12.1,17.2,12.1L17.2,12.1z M17.2,12.1"/>
	</g>
	</symbol>
<symbol id="collab-url-arrow" viewBox="0 0 30 45">
	<g>
		<path fill="none" stroke="#020203" stroke-miterlimit="10" d="M7.1,42.3c3.6,0.4,6-3.9,6.3-7.5c0.2-2.3-0.1-4.7-1.5-6.6c-1.4-1.9-4-2.9-6.1-1.9c-0.5,0.3-1,0.7-1.1,1.3
			c0,0.4,0.1,0.7,0.3,1.1c2,3.5,7.4,3.8,10.8,1.6s5.3-6.1,6.9-9.8c1.2-3,2.4-6,2.5-9.2c0-0.7,0-1.5-0.1-2.2"/>
		<g>
			<polygon fill="#020203" points="29.9,8.5 21.8,2.6 20.8,12.6"/>
		</g>
	</g>

</symbol>
	<symbol id="cm-logo" viewBox="0 0 231 27">
		<path d="M231,27 L0,27 L0,0 L231,0 L231,27 Z M2.02134502,24.97767 L228.978655,24.97767 L228.978655,2.01199439 L2.02134502,2.01199439 L2.02134502,24.97767 Z" fill="#3C3C3B"></path>
		<path d="M9.63017937,13.3496203 C9.58674652,11.7932701 10.1867721,10.2867622 11.2915136,9.17844276 C12.3962551,8.07012334 13.9100511,7.45596376 15.48287,7.47797468 C18.8874439,7.47797468 20.3894619,9.64481013 20.7589238,11.2579747 L18.3764126,12.003038 C18.2003139,11.2272152 17.4821076,9.91481013 15.48287,9.91481013 C13.9635874,9.91481013 12.2543946,10.9913924 12.2543946,13.3325316 C12.2132443,14.2087507 12.5401504,15.0627813 13.1575634,15.6920278 C13.7749763,16.3212743 14.62788,16.6696662 15.5139462,16.654557 C17.4786547,16.654557 18.276278,15.3558228 18.4869058,14.5492405 L20.9039462,15.2327848 C20.5344843,16.7844304 19.0324664,19.1563291 15.5173991,19.1563291 C12.2543946,19.1734177 9.63017937,16.8459494 9.63017937,13.3496203 Z" fill="#3C3C3B"></path>
		<path d="M32.5333632,16.6579747 L28.1516143,16.6579747 L27.3367265,18.9239241 L24.6848879,18.9239241 L28.9526906,7.70696203 L31.8773094,7.70696203 L36.0967713,18.9239241 L33.3344395,18.9239241 L32.5333632,16.6579747 Z M28.9837668,14.3783544 L31.7460987,14.3783544 L30.3752915,10.5026582 L28.9837668,14.3783544 Z" fill="#3C3C3B"></path>
		<polygon fill="#3C3C3B" points="48.3373543 18.9239241 43.6690135 11.5621519 43.6690135 18.9239241 41.1587444 18.9239241 41.1587444 7.71721519 44.2283857 7.71721519 48.4789238 14.5526582 48.4789238 7.71721519 51.0030045 7.71721519 51.0030045 18.9239241 48.3339013 18.9239241"></polygon>
		<path d="M57.1215695,18.9239241 L57.1215695,7.71721519 L61.2443498,7.71721519 C64.6489238,7.71721519 66.9347534,9.87037975 66.9347534,13.3325316 C66.9347534,16.7946835 64.6351121,18.9239241 61.2132735,18.9239241 L57.1215695,18.9239241 Z M61.1165919,16.5656962 C62.8430493,16.5656962 64.2829148,15.5711392 64.2829148,13.3222785 C64.2829148,11.0734177 62.8603139,10.0617722 61.1165919,10.0617722 L59.6456502,10.0617722 L59.6456502,16.555443 L61.1165919,16.555443 L61.1165919,16.5656962 Z" fill="#3C3C3B"></path>
		<polygon fill="#3C3C3B" points="70.5292377 7.71721519 73.4883857 7.71721519 75.8052915 11.88 78.1636323 7.71721519 80.9777578 7.71721519 76.9861883 14.2518987 76.9861883 18.9239241 74.4621076 18.9239241 74.4621076 14.2518987"></polygon>
		<polygon fill="#3C3C3B" points="103.994888 18.9239241 103.994888 11.4972152 101.03574 18.9239241 98.9881614 18.9239241 96.0324664 11.5826582 96.0324664 18.9239241 93.6361435 18.9239241 93.6361435 7.71721519 96.9302242 7.71721519 100.037848 15.2943038 102.993543 7.71721519 106.446457 7.71721519 106.446457 18.9239241 103.967265 18.9239241"></polygon>
		<polygon fill="#3C3C3B" points="112.603004 18.9239241 112.603004 7.71721519 119.781614 7.71721519 119.781614 10.075443 115.127085 10.075443 115.127085 12.211519 119.346547 12.211519 119.346547 14.4125316 115.127085 14.4125316 115.127085 16.5656962 119.795426 16.5656962 119.795426 18.9239241"></polygon>
		<path d="M124.923004,13.3496203 C124.879571,11.7941766 125.479232,10.2885375 126.583326,9.18085882 C127.687421,8.0731801 129.200339,7.45938077 130.772242,7.48139241 C134.176816,7.48139241 135.678834,9.64822785 136.048296,11.2613924 L133.665785,12.0064557 C133.489686,11.2306329 132.77148,9.91822785 130.772242,9.91822785 C129.25296,9.91822785 127.543767,10.9948101 127.543767,13.3359494 C127.502571,14.2127723 127.82994,15.0673542 128.448116,15.6967112 C129.066291,16.3260682 129.920111,16.67404 130.806771,16.6579747 C132.77148,16.6579747 133.569103,15.3592405 133.779731,14.5526582 L136.196771,15.2362025 C135.827309,16.7878481 134.325291,19.1597468 130.810224,19.1597468 C127.540314,19.1734177 124.923004,16.8459494 124.923004,13.3496203 Z" fill="#3C3C3B"></path>
		<polygon fill="#3C3C3B" points="148.637623 18.9239241 148.637623 14.4808861 144.114305 14.4808861 144.114305 18.9239241 141.590224 18.9239241 141.590224 7.71721519 144.114305 7.71721519 144.114305 12.1158228 148.637623 12.1158228 148.637623 7.71721519 151.178969 7.71721519 151.178969 18.9239241"></polygon>
		<path d="M164.075605,16.6579747 L159.693857,16.6579747 L158.878969,18.9239241 L156.22713,18.9239241 L160.494933,7.70696203 L163.419552,7.70696203 L167.639013,18.9239241 L164.876682,18.9239241 L164.075605,16.6579747 Z M160.526009,14.3783544 L163.288341,14.3783544 L161.931345,10.5026582 L160.526009,14.3783544 Z" fill="#3C3C3B"></path>
		<polygon fill="#3C3C3B" points="179.862332 18.9239241 175.190538 11.5621519 175.190538 18.9239241 172.680269 18.9239241 172.680269 7.71721519 175.74991 7.71721519 180.003901 14.5526582 180.003901 7.71721519 182.527982 7.71721519 182.527982 18.9239241 179.858879 18.9239241"></polygon>
		<polygon fill="#3C3C3B" points="188.632735 18.9239241 188.632735 7.71721519 191.191345 7.71721519 191.191345 18.9239241"></polygon>
		<path d="M196.653857,13.3496203 C196.610453,11.7938714 197.210012,10.2879039 198.313996,9.17969045 C199.41798,8.07147704 200.93087,7.45690345 202.503094,7.47797468 C205.907668,7.47797468 207.409686,9.64481013 207.779148,11.2579747 L205.396637,12.003038 C205.220538,11.2272152 204.502332,9.91481013 202.503094,9.91481013 C200.983812,9.91481013 199.274619,10.9913924 199.274619,13.3325316 C199.233469,14.2087507 199.560375,15.0627813 200.177788,15.6920278 C200.795201,16.3212743 201.648104,16.6696662 202.53417,16.654557 C204.502332,16.654557 205.296502,15.3558228 205.50713,14.5492405 L207.92417,15.2327848 C207.558161,16.7844304 206.052691,19.1563291 202.537623,19.1563291 C199.274619,19.1734177 196.653857,16.8459494 196.653857,13.3496203 Z" fill="#3C3C3B"></path>
		<path d="M218.852646,11.1041772 C218.769776,10.5812658 218.351973,9.69607595 216.970807,9.69607595 C216.028161,9.69607595 215.420448,10.2805063 215.420448,10.8991139 C215.420448,11.4356962 215.76574,11.8321519 216.539193,11.9756962 L218.058475,12.2593671 C220.216547,12.6558228 221.335291,14.0331646 221.335291,15.6292405 C221.335291,17.3859494 219.847085,19.1734177 217.146906,19.1734177 C214.015112,19.1734177 212.658117,17.1637975 212.509641,15.5813924 L214.826547,15.0277215 C214.923229,16.053038 215.62417,16.9587342 217.177982,16.9587342 C218.168969,16.9587342 218.776682,16.4836709 218.776682,15.7864557 C218.776682,15.2156962 218.313991,14.8055696 217.561256,14.6620253 L216.010897,14.3783544 C214.091076,14.0160759 212.927444,12.7481013 212.927444,11.0870886 C212.927444,8.96810127 214.812735,7.48139241 216.988072,7.48139241 C219.816009,7.48139241 220.889865,9.15949367 221.13157,10.4718987 L218.852646,11.1041772 Z" fill="#3C3C3B"></path>
	</symbol>

	<symbol id="cm-logo-gold" viewBox="0 0 231 27">
		<path d="M141.83,25.72l-.46-1.27-2.71-7.11c-.07-.12-.13-.19-.28-.19h-6.71a.33.33,0,0,0-.31.25l-1.83,5-1.21,3.44s-.63,0-1,0-.91.06-1.28,0l1.36-3.44L134.76,3c.38-1,.65-1.22.83-1.22s.48.22.85,1.19c.47,1.19,5.42,14,7.3,18.71l1.54,4.09c-.47,0-1.29,0-3.45-.07ZM138,15.53l-2.9-8.4c-.12-.24-.21-.24-.35,0l-2.8,8.4c-.06.16,0,.22.1.22h5.82c.15,0,.15-.09.13-.22Zm-19-1.15c-2,4.53-3.36,7.93-4.08,9.47-.87,1.86-1.07,2.36-1.38,2.36s-.59-.44-1.19-1.93L104.64,5.16l-1.2-3c.58,0,1.61.09,2,.09s1.59-.09,2-.09c0,0,.8,2.59,1.27,3.8l5.73,15.06c1.81-4.18,5.78-14.15,6.46-16.4.16-.46.82-2.46.82-2.46.2,0,1,.09,1.35.09.19,0,.23,0,1.14,0l-1.48,3.68c-.35.88-2,4.6-3.65,8.45Zm-64.65-.9A12.47,12.47,0,0,1,41.66,26.24c-8.54,0-12.31-6.65-12.31-12.26a12.27,12.27,0,0,1,12.5-12.2c7,0,12.53,4.43,12.53,11.7ZM41.63,3.05c-5.21,0-8.8,3.47-8.81,10.05,0,6.77,4.07,11.74,9.69,11.74,2.8,0,8.3-1.78,8.3-10.49,0-6.72-4.25-11.3-9.18-11.3ZM21.72,23.13c0,1.4,0,1.47-.41,1.68a16.73,16.73,0,0,1-6.91,1.41c-3,0-7.56-.52-10.68-3.5A12.38,12.38,0,0,1,0,14,11.78,11.78,0,0,1,5.24,3.73c2.81-1.75,6.29-2,8.69-2a28.4,28.4,0,0,1,4.92.53,16.21,16.21,0,0,0,2.53.31c.31,0,.37.15.37.28a17.68,17.68,0,0,0-.22,3.35c0,.34-.32.21-.72-.18,0,0-.42-.31-.71-.58-1.05-1-3.18-2.41-7.2-2.41A9.42,9.42,0,0,0,6.6,5C4.78,6.39,3.45,9.24,3.45,12.9a12.74,12.74,0,0,0,3.31,8.64,10.77,10.77,0,0,0,7.86,3.22,7.47,7.47,0,0,0,3.25-.54,1.15,1.15,0,0,0,.63-1.09V17.82c0-2.52,0-3.74,0-3.74.53,0,1,.09,1.62.09s1.13-.09,1.66-.09v2.31c-.06,1-.06,1.94-.06,3.24v3.5Zm40.43,2.56.07-2.18c.16-1.31.16-3.78.16-6.77V11.25c0-4.87,0-5.74-.07-6.74V2.29c.38,0,4-.09,5.9-.09,3.09,0,9.06-.28,12.77,3.56a11.14,11.14,0,0,1,3,7.92,12.73,12.73,0,0,1-3.37,8.8c-1.34,1.41-4.41,3.59-9.72,3.59-2.68,0-8.44-.38-8.76-.38Zm15.91-3.58c1.62-1.59,2.5-4.59,2.5-7.46a11.2,11.2,0,0,0-3-7.86c-2.94-3.09-6.12-3.32-9.84-3.32A5.93,5.93,0,0,0,66,3.69a.57.57,0,0,0-.37.62c0,1.06,0,4,0,6.44v3.87c0,3.31,0,6.18.06,6.77a5.42,5.42,0,0,0,.47,2.16c.4.6,1.2,1.25,4.88,1.25a9.43,9.43,0,0,0,7-2.69ZM91.94,4.5l-.19-2.31c.44,0,1.23.09,1.87.1.47,0,1.35-.12,1.72-.1l0,2.31c-.06,1-.06,1.87-.06,6.74v5.49c0,3,0,5.46.16,6.77l.19,2.28c-.67,0-1-.11-2-.1s-1.32.14-1.88.1l.11-2.28c.15-1.31.15-3.78.15-6.77V11.24c0-4.87,0-5.74-.06-6.74Z" fill="#e8aa00"/>
		  <g>
		    <path d="M218.86,12.49c-.85,2.17-1.67,4.34-2.5,6.49-.18,0-1.59,0-1.77,0-.41-1.06-.83-2.13-1.24-3.21s-.83-2.14-1.25-3.2c-.06,0-.1.29-.1.29V19h-2l0-10,2.79,0c.07.05,2.66,6.66,2.72,6.71C215.61,15.51,218,9,218,9h3l0,10h-2V13a2.42,2.42,0,0,0-.14-.51" fill="#e8aa00"/>
		    <path d="M205.73,12.1l-2,.64h-.08l0-.15A2.33,2.33,0,0,0,201.75,11a2.9,2.9,0,0,0-1.6.08,2.68,2.68,0,0,0-1.72,1.58,3.4,3.4,0,0,0-.07,2.45,2.71,2.71,0,0,0,2.2,1.84,3.07,3.07,0,0,0,1.28,0,2.48,2.48,0,0,0,1.81-1.58l.08-.21h.1l2,.58c0,.06,0,.1,0,.14a4.51,4.51,0,0,1-3,3.13,5.74,5.74,0,0,1-2.06.24,5.26,5.26,0,0,1-2.16-.57,4.72,4.72,0,0,1-2.42-2.78,5.57,5.57,0,0,1,0-3.84,5,5,0,0,1,3.62-3.15,5.55,5.55,0,0,1,2-.09,4.81,4.81,0,0,1,1.62.48A4.24,4.24,0,0,1,205.71,12a.87.87,0,0,1,0,.1" fill="#e8aa00"/>
		    <path d="M229,24H189V4h40ZM187,2V26h44V2Z" fill="#e8aa00"/>
		  </g>
		  <polygon points="172.43 9.12 170.95 7.64 166.29 12.29 161.63 7.64 160.15 9.12 164.81 13.78 160.15 18.43 161.63 19.91 166.29 15.26 170.95 19.91 172.43 18.43 167.77 13.78 172.43 9.12" fill="#e8aa00"/>
	</symbol>

	<symbol id="cm-logo-no-box" viewBox="0 0 231 27">
		<path d="M9.63017937,13.3496203 C9.58674652,11.7932701 10.1867721,10.2867622 11.2915136,9.17844276 C12.3962551,8.07012334 13.9100511,7.45596376 15.48287,7.47797468 C18.8874439,7.47797468 20.3894619,9.64481013 20.7589238,11.2579747 L18.3764126,12.003038 C18.2003139,11.2272152 17.4821076,9.91481013 15.48287,9.91481013 C13.9635874,9.91481013 12.2543946,10.9913924 12.2543946,13.3325316 C12.2132443,14.2087507 12.5401504,15.0627813 13.1575634,15.6920278 C13.7749763,16.3212743 14.62788,16.6696662 15.5139462,16.654557 C17.4786547,16.654557 18.276278,15.3558228 18.4869058,14.5492405 L20.9039462,15.2327848 C20.5344843,16.7844304 19.0324664,19.1563291 15.5173991,19.1563291 C12.2543946,19.1734177 9.63017937,16.8459494 9.63017937,13.3496203 Z"></path>
		<path d="M32.5333632,16.6579747 L28.1516143,16.6579747 L27.3367265,18.9239241 L24.6848879,18.9239241 L28.9526906,7.70696203 L31.8773094,7.70696203 L36.0967713,18.9239241 L33.3344395,18.9239241 L32.5333632,16.6579747 Z M28.9837668,14.3783544 L31.7460987,14.3783544 L30.3752915,10.5026582 L28.9837668,14.3783544 Z"></path>
		<polygon points="48.3373543 18.9239241 43.6690135 11.5621519 43.6690135 18.9239241 41.1587444 18.9239241 41.1587444 7.71721519 44.2283857 7.71721519 48.4789238 14.5526582 48.4789238 7.71721519 51.0030045 7.71721519 51.0030045 18.9239241 48.3339013 18.9239241"></polygon>
		<path d="M57.1215695,18.9239241 L57.1215695,7.71721519 L61.2443498,7.71721519 C64.6489238,7.71721519 66.9347534,9.87037975 66.9347534,13.3325316 C66.9347534,16.7946835 64.6351121,18.9239241 61.2132735,18.9239241 L57.1215695,18.9239241 Z M61.1165919,16.5656962 C62.8430493,16.5656962 64.2829148,15.5711392 64.2829148,13.3222785 C64.2829148,11.0734177 62.8603139,10.0617722 61.1165919,10.0617722 L59.6456502,10.0617722 L59.6456502,16.555443 L61.1165919,16.555443 L61.1165919,16.5656962 Z"></path>
		<polygon points="70.5292377 7.71721519 73.4883857 7.71721519 75.8052915 11.88 78.1636323 7.71721519 80.9777578 7.71721519 76.9861883 14.2518987 76.9861883 18.9239241 74.4621076 18.9239241 74.4621076 14.2518987"></polygon>
		<polygon points="103.994888 18.9239241 103.994888 11.4972152 101.03574 18.9239241 98.9881614 18.9239241 96.0324664 11.5826582 96.0324664 18.9239241 93.6361435 18.9239241 93.6361435 7.71721519 96.9302242 7.71721519 100.037848 15.2943038 102.993543 7.71721519 106.446457 7.71721519 106.446457 18.9239241 103.967265 18.9239241"></polygon>
		<polygon points="112.603004 18.9239241 112.603004 7.71721519 119.781614 7.71721519 119.781614 10.075443 115.127085 10.075443 115.127085 12.211519 119.346547 12.211519 119.346547 14.4125316 115.127085 14.4125316 115.127085 16.5656962 119.795426 16.5656962 119.795426 18.9239241"></polygon>
		<path d="M124.923004,13.3496203 C124.879571,11.7941766 125.479232,10.2885375 126.583326,9.18085882 C127.687421,8.0731801 129.200339,7.45938077 130.772242,7.48139241 C134.176816,7.48139241 135.678834,9.64822785 136.048296,11.2613924 L133.665785,12.0064557 C133.489686,11.2306329 132.77148,9.91822785 130.772242,9.91822785 C129.25296,9.91822785 127.543767,10.9948101 127.543767,13.3359494 C127.502571,14.2127723 127.82994,15.0673542 128.448116,15.6967112 C129.066291,16.3260682 129.920111,16.67404 130.806771,16.6579747 C132.77148,16.6579747 133.569103,15.3592405 133.779731,14.5526582 L136.196771,15.2362025 C135.827309,16.7878481 134.325291,19.1597468 130.810224,19.1597468 C127.540314,19.1734177 124.923004,16.8459494 124.923004,13.3496203 Z"></path>
		<polygon points="148.637623 18.9239241 148.637623 14.4808861 144.114305 14.4808861 144.114305 18.9239241 141.590224 18.9239241 141.590224 7.71721519 144.114305 7.71721519 144.114305 12.1158228 148.637623 12.1158228 148.637623 7.71721519 151.178969 7.71721519 151.178969 18.9239241"></polygon>
		<path d="M164.075605,16.6579747 L159.693857,16.6579747 L158.878969,18.9239241 L156.22713,18.9239241 L160.494933,7.70696203 L163.419552,7.70696203 L167.639013,18.9239241 L164.876682,18.9239241 L164.075605,16.6579747 Z M160.526009,14.3783544 L163.288341,14.3783544 L161.931345,10.5026582 L160.526009,14.3783544 Z"></path>
		<polygon points="179.862332 18.9239241 175.190538 11.5621519 175.190538 18.9239241 172.680269 18.9239241 172.680269 7.71721519 175.74991 7.71721519 180.003901 14.5526582 180.003901 7.71721519 182.527982 7.71721519 182.527982 18.9239241 179.858879 18.9239241"></polygon>
		<polygon points="188.632735 18.9239241 188.632735 7.71721519 191.191345 7.71721519 191.191345 18.9239241"></polygon>
		<path d="M196.653857,13.3496203 C196.610453,11.7938714 197.210012,10.2879039 198.313996,9.17969045 C199.41798,8.07147704 200.93087,7.45690345 202.503094,7.47797468 C205.907668,7.47797468 207.409686,9.64481013 207.779148,11.2579747 L205.396637,12.003038 C205.220538,11.2272152 204.502332,9.91481013 202.503094,9.91481013 C200.983812,9.91481013 199.274619,10.9913924 199.274619,13.3325316 C199.233469,14.2087507 199.560375,15.0627813 200.177788,15.6920278 C200.795201,16.3212743 201.648104,16.6696662 202.53417,16.654557 C204.502332,16.654557 205.296502,15.3558228 205.50713,14.5492405 L207.92417,15.2327848 C207.558161,16.7844304 206.052691,19.1563291 202.537623,19.1563291 C199.274619,19.1734177 196.653857,16.8459494 196.653857,13.3496203 Z"></path>
		<path d="M218.852646,11.1041772 C218.769776,10.5812658 218.351973,9.69607595 216.970807,9.69607595 C216.028161,9.69607595 215.420448,10.2805063 215.420448,10.8991139 C215.420448,11.4356962 215.76574,11.8321519 216.539193,11.9756962 L218.058475,12.2593671 C220.216547,12.6558228 221.335291,14.0331646 221.335291,15.6292405 C221.335291,17.3859494 219.847085,19.1734177 217.146906,19.1734177 C214.015112,19.1734177 212.658117,17.1637975 212.509641,15.5813924 L214.826547,15.0277215 C214.923229,16.053038 215.62417,16.9587342 217.177982,16.9587342 C218.168969,16.9587342 218.776682,16.4836709 218.776682,15.7864557 C218.776682,15.2156962 218.313991,14.8055696 217.561256,14.6620253 L216.010897,14.3783544 C214.091076,14.0160759 212.927444,12.7481013 212.927444,11.0870886 C212.927444,8.96810127 214.812735,7.48139241 216.988072,7.48139241 C219.816009,7.48139241 220.889865,9.15949367 221.13157,10.4718987 L218.852646,11.1041772 Z"></path>
	</symbol>

	<symbol id="cm-logo-small" viewBox="0 0 52 27" >
		<path d="M52,27 L0,27 L0,0 L52,0 L52,27 Z M2,25 L50,25 L50,2 L2,2 L2,25 Z" fill="#3C3C3B"></path>
		<path d="M9.63017937,13.3496203 C9.58674652,11.7932701 10.1867721,10.2867622 11.2915136,9.17844276 C12.3962551,8.07012334 13.9100511,7.45596376 15.48287,7.47797468 C18.8874439,7.47797468 20.3894619,9.64481013 20.7589238,11.2579747 L18.3764126,12.003038 C18.2003139,11.2272152 17.4821076,9.91481013 15.48287,9.91481013 C13.9635874,9.91481013 12.2543946,10.9913924 12.2543946,13.3325316 C12.2132443,14.2087507 12.5401504,15.0627813 13.1575634,15.6920278 C13.7749763,16.3212743 14.62788,16.6696662 15.5139462,16.654557 C17.4786547,16.654557 18.276278,15.3558228 18.4869058,14.5492405 L20.9039462,15.2327848 C20.5344843,16.7844304 19.0324664,19.1563291 15.5173991,19.1563291 C12.2543946,19.1734177 9.63017937,16.8459494 9.63017937,13.3496203 Z" fill="#3C3C3B"></path>
		<polygon fill="#3C3C3B" points="38.9948879 18.9239241 38.9948879 11.4972152 36.0357399 18.9239241 33.9881614 18.9239241 31.0324664 11.5826582 31.0324664 18.9239241 28.6361435 18.9239241 28.6361435 7.71721519 31.9302242 7.71721519 35.0378475 15.2943038 37.9935426 7.71721519 41.4464574 7.71721519 41.4464574 18.9239241 38.9672646 18.9239241"></polygon>
	</symbol>

	<symbol id="cm-logo-small-gold" viewBox="0 0 52 27" >
		<path d="M52,27 L0,27 L0,0 L52,0 L52,27 Z M2,25 L50,25 L50,2 L2,2 L2,25 Z" fill="#e8aa00"></path>
		<path d="M9.63017937,13.3496203 C9.58674652,11.7932701 10.1867721,10.2867622 11.2915136,9.17844276 C12.3962551,8.07012334 13.9100511,7.45596376 15.48287,7.47797468 C18.8874439,7.47797468 20.3894619,9.64481013 20.7589238,11.2579747 L18.3764126,12.003038 C18.2003139,11.2272152 17.4821076,9.91481013 15.48287,9.91481013 C13.9635874,9.91481013 12.2543946,10.9913924 12.2543946,13.3325316 C12.2132443,14.2087507 12.5401504,15.0627813 13.1575634,15.6920278 C13.7749763,16.3212743 14.62788,16.6696662 15.5139462,16.654557 C17.4786547,16.654557 18.276278,15.3558228 18.4869058,14.5492405 L20.9039462,15.2327848 C20.5344843,16.7844304 19.0324664,19.1563291 15.5173991,19.1563291 C12.2543946,19.1734177 9.63017937,16.8459494 9.63017937,13.3496203 Z" fill="#e8aa00"></path>
		<polygon fill="#e8aa00" points="38.9948879 18.9239241 38.9948879 11.4972152 36.0357399 18.9239241 33.9881614 18.9239241 31.0324664 11.5826582 31.0324664 18.9239241 28.6361435 18.9239241 28.6361435 7.71721519 31.9302242 7.71721519 35.0378475 15.2943038 37.9935426 7.71721519 41.4464574 7.71721519 41.4464574 18.9239241 38.9672646 18.9239241"></polygon>
	</symbol>

	<symbol id="down-arrow" viewBox="0 0 10 6">
		<polyline  points="8.4,0.4 4.4,4.4 0.4,0.4 "/>
	</symbol>

	<symbol id="left-arrow" viewBox="0 0 20 18">
		<polyline points="10 17 2 9 10 1"/>
		<line x1="2" y1="9" x2="20" y2="9"/>
	</symbol>

	<symbol id="right-arrow" viewBox="0 0 20 18">
		<polyline class="cls-1" points="10 1 18 9 10 17"/>
		<line class="cls-1" x1="18" y1="9" y2="9"/>
	</symbol>

	<symbol id="instagram" viewBox="0 0 24 24">
		<path d="M12,2.16c3.2,0,3.58,0,4.85.07a6.64,6.64,0,0,1,2.23.41,3.72,3.72,0,0,1,1.38.9,3.72,3.72,0,0,1,.9,1.38,6.64,6.64,0,0,1,.41,2.23c0.06,1.27.07,1.64,0.07,4.85s0,3.58-.07,4.85a6.64,6.64,0,0,1-.41,2.23,4,4,0,0,1-2.28,2.28,6.64,6.64,0,0,1-2.23.41c-1.27.06-1.64,0.07-4.85,0.07s-3.58,0-4.85-.07a6.64,6.64,0,0,1-2.23-.41,3.72,3.72,0,0,1-1.38-.9,3.72,3.72,0,0,1-.9-1.38,6.64,6.64,0,0,1-.41-2.23C2.17,15.58,2.16,15.2,2.16,12s0-3.58.07-4.85a6.64,6.64,0,0,1,.41-2.23,3.72,3.72,0,0,1,.9-1.38,3.72,3.72,0,0,1,1.38-.9,6.64,6.64,0,0,1,2.23-.41C8.42,2.17,8.8,2.16,12,2.16M12,0C8.74,0,8.33,0,7.05.07A8.81,8.81,0,0,0,4.14.63,5.88,5.88,0,0,0,2,2,5.88,5.88,0,0,0,.63,4.14,8.81,8.81,0,0,0,.07,7.05C0,8.33,0,8.74,0,12s0,3.67.07,4.95a8.81,8.81,0,0,0,.56,2.91A5.88,5.88,0,0,0,2,22a5.88,5.88,0,0,0,2.13,1.38,8.81,8.81,0,0,0,2.91.56C8.33,24,8.74,24,12,24s3.67,0,4.95-.07a8.81,8.81,0,0,0,2.91-.56,6.14,6.14,0,0,0,3.51-3.51,8.81,8.81,0,0,0,.56-2.91C24,15.67,24,15.26,24,12s0-3.67-.07-4.95a8.81,8.81,0,0,0-.56-2.91A5.88,5.88,0,0,0,22,2,5.88,5.88,0,0,0,19.86.63,8.81,8.81,0,0,0,16.95.07C15.67,0,15.26,0,12,0h0Z"/>
		<path d="M12,6a6,6,0,1,0,6,6A6,6,0,0,0,12,6Zm0,9.89A3.89,3.89,0,1,1,15.89,12,3.89,3.89,0,0,1,12,15.89Z"/>
		<circle cx="18.5" cy="5.5" r="1.5"/>
	</symbol>

	<symbol id="twitter" viewBox="0 0 24 24">
		<path class="cls-1" d="M23.27,2.69a9.94,9.94,0,0,1-3.12,1.16,4.89,4.89,0,0,0-7-.09,4.7,4.7,0,0,0-1.44,3.44,4.59,4.59,0,0,0,.14,1.12A13.53,13.53,0,0,1,6.2,6.83,13.48,13.48,0,0,1,1.76,3.2a4.56,4.56,0,0,0-.7,2.47,4.58,4.58,0,0,0,2.19,4,4.23,4.23,0,0,1-2.19-.61V9.21a4.75,4.75,0,0,0,1.09,3.07A4.84,4.84,0,0,0,5,14a6.2,6.2,0,0,1-1.3.14A4.74,4.74,0,0,1,2.74,14a5.13,5.13,0,0,0,1.75,2.44,4.48,4.48,0,0,0,2.82,1,9.5,9.5,0,0,1-6.05,2.09q-0.56,0-1.16,0a13.71,13.71,0,0,0,7.49,2.19,14,14,0,0,0,6-1.26,12.54,12.54,0,0,0,4.4-3.28,15.48,15.48,0,0,0,2.63-4.47,13.7,13.7,0,0,0,.93-4.91V7.16A10,10,0,0,0,23.92,4.6a9.89,9.89,0,0,1-2.79.79A4.85,4.85,0,0,0,23.27,2.69Z"/>
	</symbol>

	<symbol id="vimeo" viewBox="0 0 24 24">
		<path d="M23,7.4q-0.14,3.18-4.49,8.78Q14,22,10.91,22,9,22,7.66,18.45l-1.78-6.5q-1-3.53-2.12-3.53A6.8,6.8,0,0,0,2,9.44L1,8.12l1.46-1.3L4.22,5.26a7,7,0,0,1,3.26-2A2.33,2.33,0,0,1,9.54,4a5.4,5.4,0,0,1,1.09,2.75q0.59,3.87.89,5,0.74,3.36,1.62,3.36,0.69,0,2.08-2.17A8.74,8.74,0,0,0,16.7,9.68q0.18-1.88-1.47-1.88a4.36,4.36,0,0,0-1.64.35Q15.22,2.86,19.8,3,23.19,3.11,23,7.4Z"/>
	</symbol>

	<symbol id="facebook" viewBox="0 0 24 24">
		<path d="M18,1.16V4.65H15.95a1.94,1.94,0,0,0-1.53.48A2.19,2.19,0,0,0,14,6.55v2.5h3.89L17.38,13H14V23H10V13H6.6V9.05H10V6.17a5.1,5.1,0,0,1,1.35-3.81A5,5,0,0,1,15,1,21.87,21.87,0,0,1,18,1.16Z"/>
	</symbol>

	<symbol id="map-pin" viewBox="0 0 18 24">
		<path d="M9,11a2,2,0,1,1,2-2A2,2,0,0,1,9,11ZM9,5.67A3.33,3.33,0,1,0,12.33,9,3.33,3.33,0,0,0,9,5.67ZM9,1A8,8,0,0,0,1,9c0,3.34,6.67,13.33,8,13.33H9c1.37,0,8-10.12,8-13.33A8,8,0,0,0,9,1ZM9,2.33A6.67,6.67,0,0,1,15.67,9c0,2.41-4.85,9.93-6.67,11.75C6.92,18.67,2.33,11.37,2.33,9A6.68,6.68,0,0,1,9,2.33Z"/>
	</symbol>

	<symbol id="mail" viewBox="0 0 16 12">
		<path class="cls-1" d="M15,1V2.63l0,0L8,7.41,1,2.63V1H15ZM11.16,6.44L15,3.78v6.5ZM1,10.28V3.84L4.84,6.47ZM5.69,7L8,8.59,10.31,7l4,4H1.72ZM15,0H1A1,1,0,0,0,.3.3,1,1,0,0,0,0,1V11a1,1,0,0,0,.3.7A1,1,0,0,0,1,12H15a1,1,0,0,0,1-1V1A1,1,0,0,0,15.7.3,1,1,0,0,0,15,0Z"/>
	</symbol>

	<symbol id="pin" viewBox="0 0 15 20">
		<path d="M7.5,9.38A1.88,1.88,0,1,1,9.38,7.5,1.86,1.86,0,0,1,7.5,9.38Zm0-5A3.13,3.13,0,1,0,10.63,7.5,3.12,3.12,0,0,0,7.5,4.38ZM7.5,0A7.5,7.5,0,0,0,0,7.5C0,10.63,6.26,20,7.5,20h0C8.78,20,15,10.53,15,7.5A7.5,7.5,0,0,0,7.5,0Zm0,1.25A6.26,6.26,0,0,1,13.75,7.5c0,2.23-4.48,9.25-6.25,11-2.06-2.06-6.25-8.88-6.25-11A6.26,6.26,0,0,1,7.5,1.25Z"/>
	</symbol>

	<symbol id="star" viewBox="0 0 14 13">
		<polygon points="7 10.7793349 2.67376208 13 3.5 8.29655581 -2.74724687e-13 4.96555815 4.83688104 4.27933489 7 0 9.16311896 4.27933489 14 4.96555815 10.5 8.29655581 11.3262379 13"></polygon>
	</symbol>

	<symbol id="eye" viewBox="0 0 22 19">
		<path d="M11,6 C11.812505,6 12.515621,6.296871 13.109375,6.890625 C13.703129,7.484379 14,8.187495 14,9 C14,9.812505 13.703129,10.515621 13.109375,11.109375 C12.515621,11.703129 11.812505,12 11,12 C10.187495,12 9.484379,11.703129 8.890625,11.109375 C8.296871,10.515621 8,9.812505 8,9 C8,8.187495 8.296871,7.484379 8.890625,6.890625 C9.484379,6.296871 10.187495,6 11,6 Z" fill="#4b4d6e"></path>
		<path d="M15.9181619,5.47954905 C14.4502124,4.49135827 12.8193206,4 11,4 C9.18067945,4 7.54978763,4.49135827 6.08183812,5.47954905 C4.72805852,6.39088319 3.73407901,7.55912104 3.08559047,9 C3.73407901,10.440879 4.72805849,11.6091168 6.08183778,12.5204507 C7.54978843,13.5086414 9.18068061,14 11,14 C12.8193194,14 14.4502116,13.5086414 15.9181619,12.520451 C17.2719417,11.6091167 18.2659213,10.4408788 18.9144096,9 C18.2659213,7.55912124 17.2719417,6.39088332 15.9181619,5.47954905 Z M11,2 C13.2147451,2 15.2348792,2.60862994 17.0350296,3.82045095 C18.8355651,5.0325312 20.1397349,6.64266059 20.9293832,8.63088357 L21.0759825,9 L20.9293832,9.36911643 C20.1397349,11.3573394 18.8355651,12.9674688 17.0350293,14.1795493 C15.234878,15.3913698 13.2147439,16 11,16 C8.78525614,16 6.76512198,15.3913698 4.96497039,14.179549 C3.16443508,12.9674689 1.86026545,11.3573397 1.07061688,9.36911654 L0.924017467,9 L1.07061688,8.63088346 C1.86026545,6.64266033 3.16443508,5.03253105 4.96497039,3.82045095 C6.76512084,2.60862994 8.78525492,2 11,2 Z" fill="#4b4d6e"></path>
	</symbol>

	<symbol id="eye-hide" viewBox="0 0 22 19">
		<path d="M11,6 C11.812505,6 12.515621,6.296871 13.109375,6.890625 C13.703129,7.484379 14,8.187495 14,9 C14,9.812505 13.703129,10.515621 13.109375,11.109375 C12.515621,11.703129 11.812505,12 11,12 C10.187495,12 9.484379,11.703129 8.890625,11.109375 C8.296871,10.515621 8,9.812505 8,9 C8,8.187495 8.296871,7.484379 8.890625,6.890625 C9.484379,6.296871 10.187495,6 11,6 Z" fill="#4b4d6e"></path>
		<path d="M15.9181619,5.47954905 C14.4502124,4.49135827 12.8193206,4 11,4 C9.18067945,4 7.54978763,4.49135827 6.08183812,5.47954905 C4.72805852,6.39088319 3.73407901,7.55912104 3.08559047,9 C3.73407901,10.440879 4.72805849,11.6091168 6.08183778,12.5204507 C7.54978843,13.5086414 9.18068061,14 11,14 C12.8193194,14 14.4502116,13.5086414 15.9181619,12.520451 C17.2719417,11.6091167 18.2659213,10.4408788 18.9144096,9 C18.2659213,7.55912124 17.2719417,6.39088332 15.9181619,5.47954905 Z M11,2 C13.2147451,2 15.2348792,2.60862994 17.0350296,3.82045095 C18.8355651,5.0325312 20.1397349,6.64266059 20.9293832,8.63088357 L21.0759825,9 L20.9293832,9.36911643 C20.1397349,11.3573394 18.8355651,12.9674688 17.0350293,14.1795493 C15.234878,15.3913698 13.2147439,16 11,16 C8.78525614,16 6.76512198,15.3913698 4.96497039,14.179549 C3.16443508,12.9674689 1.86026545,11.3573397 1.07061688,9.36911654 L0.924017467,9 L1.07061688,8.63088346 C1.86026545,6.64266033 3.16443508,5.03253105 4.96497039,3.82045095 C6.76512084,2.60862994 8.78525492,2 11,2 Z" fill="#4b4d6e"></path>
		<polygon fill="#FFFFFF" points="4 18.4142136 19.4142136 3 18 1.58578644 2.58578644 17"></polygon>
		<polygon fill="#4b4d6e" points="4 16.4142136 18.4142136 2 17 0.585786438 2.58578644 15"></polygon>
	</symbol>

	<symbol id="pencil" viewBox="0 0 12 12">
		<path d="M11.8125,2.6875 L10.59375,3.90625 L8.09375,1.40625 L9.3125,0.1875 C9.4375,0.0625 9.59375,0 9.78125,0 C9.96875,0 10.125,0.0625 10.25,0.1875 L11.8125,1.75 C11.9375,1.875 12,2.03125 12,2.21875 C12,2.40625 11.9375,2.5625 11.8125,2.6875 Z M0,9.5 L7.375,2.125 L9.875,4.625 L2.5,12 L0,12 L0,9.5 Z"></path>
	</symbol>

	<symbol id="bin" viewBox="0 0 11 12">
		<path d="M3.75,4 C3.888,4 4,4.112 4,4.25 L4,9.75 C4,9.888 3.888,10 3.75,10 L3.25,10 C3.112,10 3,9.888 3,9.75 L3,4.25 C3,4.112 3.112,4 3.25,4 L3.75,4 Z M5.75,4 C5.888,4 6,4.112 6,4.25 L6,9.75 C6,9.888 5.888,10 5.75,10 L5.25,10 C5.112,10 5,9.888 5,9.75 L5,4.25 C5,4.112 5.112,4 5.25,4 L5.75,4 Z M7.75,4 C7.888,4 8,4.112 8,4.25 L8,9.75 C8,9.888 7.888,10 7.75,10 L7.25,10 C7.112,10 7,9.888 7,9.75 L7,4.25 C7,4.112 7.112,4 7.25,4 L7.75,4 Z M8.75,11 L2.25,11 C2.112,11 2,10.888 2,10.75 L2,3 L9,3 L9,10.75 C9,10.888 8.888,11 8.75,11 L8.75,11 Z M3.809,1 L7.191,1 C7.38,1 7.553,1.107 7.638,1.276 L8,2 L3,2 L3.362,1.276 C3.447,1.107 3.62,1 3.809,1 L3.809,1 Z M9,2 L8.276,0.553 C8.107,0.214 7.761,0 7.382,0 L3.618,0 C3.239,0 2.893,0.214 2.724,0.553 L2,2 L0.25,2 C0.112,2 0,2.112 0,2.25 L0,2.75 C0,2.888 0.112,3 0.25,3 L1,3 L1,11.5 C1,11.776 1.224,12 1.5,12 L9.5,12 C9.776,12 10,11.776 10,11.5 L10,3 L10.75,3 C10.888,3 11,2.888 11,2.75 L11,2.25 C11,2.112 10.888,2 10.75,2 L9,2 Z"></path>
	</symbol>

	<symbol id="left-align" viewBox="0 0 60 60">
  		<path d="M40,40v6.72H0V40H40Zm0-26.72V20H0V13.28H40Zm-40,20V26.72H60v6.56H0ZM0,60V53.28H60V60H0ZM0,0H60V6.72H0V0Z"/>
	</symbol>

	<symbol id="center-align" viewBox="0 0 60 60">
	  <path d="M13.28,40H46.72v6.72H13.28V40ZM0,60V53.28H60V60H0ZM0,33.28V26.72H60v6.56H0Zm13.28-20H46.72V20H13.28V13.28ZM0,0H60V6.72H0V0Z"/>
	</symbol>

	<symbol id="right-align" viewBox="0 0 60 60">
	  <path d="M0,60V53.28H60V60H0ZM20,46.72V40H60v6.72H20ZM0,33.28V26.72H60v6.56H0ZM20,20V13.28H60V20H20ZM0,0H60V6.72H0V0Z"/>
	</symbol>

	<symbol id="cross" viewBox="0 0 10 10">
		<line x1="1" y1="1" x2="9" y2="9"/>
		<line x1="9" y1="1" x2="1" y2="9"/>
	</symbol>

	<symbol id="press-and-drag" viewBox="0 0 100 100">
		<path d="M76.482,44.875c-0.407,0-1.44,0.14-2.502,0.47c-0.271-3.613-3.299-6.47-6.98-6.47
			c-1.68,0-3.223,0.594-4.43,1.584c-0.986-2.673-3.56-4.584-6.57-4.584c-1.751,0-3.552,0.536-5,1.572v-7.284
			c4.146-2.304,6.965-6.716,6.965-11.788c0-7.444-6.056-13.5-13.5-13.5s-13.5,6.056-13.5,13.5c0,4.995,2.732,9.354,6.775,11.688
			l0.071,31.554l-5.76-6.045c-1.55-1.551-3.6-2.405-5.772-2.405s-4.223,0.854-5.772,2.405c-3.204,3.203-3.211,8.41-0.072,11.545
			c0.052,0.059,5.269,5.875,12.712,13.318l1.211,1.215c7.058,7.096,13.152,13.225,25.35,13.225c12.629,0,16.854-6.338,20.1-12.83
			c3.122-6.244,3.158-30.156,3.158-31.17C82.965,47.678,79.936,44.875,76.482,44.875z M77.123,80.703
			c-3.056,6.112-6.475,11.172-17.416,11.172c-10.95,0-16.366-5.445-23.223-12.34l-1.217-1.221
			c-7.381-7.381-12.547-13.141-12.655-13.258c-0.981-0.982-1.521-2.289-1.518-3.679c0.004-1.392,0.548-2.7,1.533-3.685
			c0.983-0.984,2.28-1.526,3.651-1.526s2.667,0.542,3.625,1.5l8.33,8.742c0.426,0.446,1.08,0.585,1.645,0.357
			c0.57-0.229,0.942-0.782,0.941-1.396l-0.104-45.997c0-2.076,0.985-4.5,3.763-4.5c3.268,0,3.521,3.444,3.521,4.5v28
			c0,0.829,0.672,1.5,1.5,1.5s1.5-0.671,1.5-1.5v-4c0-3.302,2.99-4.5,5-4.5c2.206,0,4,1.794,4,4v5.5c0,0.829,0.672,1.5,1.5,1.5
			s1.5-0.671,1.5-1.5v-2.5c0-2.206,1.794-4,4-4s4,1.794,4,4v6.5c0,0.828,0.672,1.5,1.5,1.5s1.5-0.672,1.5-1.5v-3.82
			c0.6-0.292,1.776-0.681,2.482-0.681c1.79,0,3.482,1.458,3.482,3C79.965,57.591,79.453,76.043,77.123,80.703z"/>
		<path d="M65.359,22.143c0.184,0.153,0.411,0.232,0.641,0.232c0.144,0,0.289-0.031,0.424-0.094
			C66.775,22.116,67,21.763,67,21.375V20h4v4h-1c-0.388,0-0.741,0.412-0.905,0.763c-0.165,0.352-0.111,0.86,0.137,1.158l2.5,3.047
			c0.19,0.228,0.472,0.383,0.769,0.383s0.578-0.12,0.769-0.348l2.5-2.994c0.248-0.298,0.302-0.897,0.137-1.249
			C75.741,24.409,75.388,24,75,24h-1v-4h4v1.375c0,0.388,0.225,0.741,0.576,0.906c0.135,0.063,0.279,0.094,0.424,0.094
			c0.229,0,0.457-0.079,0.641-0.232l3-2.5C82.868,19.453,83,19.171,83,18.875s-0.132-0.578-0.359-0.768l-3-2.5
			c-0.299-0.248-0.714-0.302-1.064-0.138C78.225,15.633,78,15.986,78,16.375V17h-4v-4h1c0.388,0,0.741-0.037,0.905-0.389
			c0.165-0.352,0.111-0.673-0.137-0.971l-2.5-2.953c-0.381-0.456-1.156-0.433-1.537,0.023l-2.5,3.012
			c-0.248,0.298-0.302,0.532-0.137,0.883C69.259,12.957,69.612,13,70,13h1v4h-4v-0.625c0-0.388-0.225-0.741-0.576-0.906
			c-0.349-0.162-0.765-0.111-1.064,0.138l-3,2.5C62.132,18.296,62,18.578,62,18.875s0.132,0.578,0.359,0.768L65.359,22.143z"/>
	</symbol>

	<symbol id="account-save" viewBox="0 0 100 110">
		<g fill="none" stroke="#404041" stroke-linecap="round" stroke-linejoin="round" stroke-width="3px" >
			<polygon points="73 83 27 83 27 37 64.94 37 73 45 73 83"/>
			<rect x="34.5" y="63" width="31" height="19"/>
			<rect x="37" y="37" width="26" height="16"/>
			<rect x="49.5" y="43" width="7.5" height="4"/>
			<line x1="40" y1="69" x2="52" y2="69"/>
			<line x1="40" y1="75" x2="54" y2="75"/>
		</g>
		<g fill="#5CA18F">
			<path d="M32.25,105a4,4,0,0,1-4.31,4H26.17a.8.8,0,0,1-.83-.83v-6.26a.8.8,0,0,1,.83-.83h1.77C30.51,101.06,32.25,102.64,32.25,105ZM27,102.52v5h1A2.44,2.44,0,0,0,30.59,105a2.39,2.39,0,0,0-2.66-2.48Z"/>
			<path d="M33.92,108.17v-6.3a.79.79,0,0,1,.8-.81H38.6a.71.71,0,0,1,.74.73.72.72,0,0,1-.74.73H35.54v1.61h2.1a.69.69,0,1,1,0,1.38h-2.1v2h3.2a.73.73,0,0,1,.74.74.72.72,0,0,1-.74.73h-4A.79.79,0,0,1,33.92,108.17Z"/>
			<path d="M41.05,108.05a.87.87,0,0,1-.3-.62.73.73,0,0,1,.74-.72.63.63,0,0,1,.42.16,2.38,2.38,0,0,0,1.69.81c.71,0,1.13-.33,1.13-.87s-.28-.65-1-1l-.85-.38c-1.26-.58-1.92-1.26-1.92-2.28a2.37,2.37,0,0,1,2.63-2.24,2.89,2.89,0,0,1,2.22.93.76.76,0,0,1,.21.52.75.75,0,0,1-.74.72.66.66,0,0,1-.44-.17,1.81,1.81,0,0,0-1.25-.56c-.58,0-1,.27-1,.76s.22.59.93.92l.9.39c1.32.59,1.95,1.24,1.95,2.32,0,1.46-1.19,2.37-2.77,2.37A3.61,3.61,0,0,1,41.05,108.05Z"/>
			<path d="M48.09,108.29v-6.54a.8.8,0,0,1,.82-.83.79.79,0,0,1,.8.83v6.54a.79.79,0,0,1-.8.83A.8.8,0,0,1,48.09,108.29Z"/>
			<path d="M51.37,105a4.1,4.1,0,0,1,4.23-4.1A4,4,0,0,1,58.41,102a1.19,1.19,0,0,1,.49.85.75.75,0,0,1-.74.74.88.88,0,0,1-.69-.36,2.42,2.42,0,0,0-1.89-.84A2.45,2.45,0,0,0,53,105a2.51,2.51,0,0,0,2.63,2.65,2.57,2.57,0,0,0,2.09-1V106H56.25a.72.72,0,0,1-.76-.7.72.72,0,0,1,.76-.71h2.3a.8.8,0,0,1,.83.83v1a1.51,1.51,0,0,1-.25.9,4.36,4.36,0,0,1-3.53,1.74A4.1,4.1,0,0,1,51.37,105Z"/>
			<path d="M67.82,101.75v6.56a.79.79,0,0,1-.8.81,1,1,0,0,1-.8-.49l-3.53-4.53v4.19a.81.81,0,1,1-1.61,0v-6.56a.79.79,0,0,1,.79-.81c.4,0,.58.23.82.53l3.52,4.49v-4.19a.81.81,0,1,1,1.62,0Z"/>
			<path d="M69.88,108.05a.87.87,0,0,1-.3-.62.74.74,0,0,1,.75-.72.63.63,0,0,1,.42.16,2.36,2.36,0,0,0,1.69.81c.71,0,1.13-.33,1.13-.87s-.28-.65-1-1l-.85-.38c-1.26-.58-1.92-1.26-1.92-2.28a2.36,2.36,0,0,1,2.62-2.24,2.85,2.85,0,0,1,2.22.93.73.73,0,0,1,.22.52.75.75,0,0,1-.75.72.68.68,0,0,1-.44-.17,1.77,1.77,0,0,0-1.25-.56c-.57,0-1,.27-1,.76s.22.59.92.92l.9.39c1.32.59,2,1.24,2,2.32,0,1.46-1.19,2.37-2.77,2.37A3.63,3.63,0,0,1,69.88,108.05Z"/>
			<path d="M18.58,19.5a.87.87,0,0,1-.49-.49.72.72,0,0,1,.47-.92.61.61,0,0,1,.44,0,2.36,2.36,0,0,0,1.87.21c.67-.23.95-.69.78-1.2s-.48-.52-1.28-.59l-.93-.08c-1.38-.13-2.23-.55-2.57-1.51a2.37,2.37,0,0,1,1.73-3,2.85,2.85,0,0,1,2.41.14.73.73,0,0,1,.37.42.74.74,0,0,1-.46.92.64.64,0,0,1-.47,0,1.87,1.87,0,0,0-1.37-.12c-.54.2-.84.59-.67,1.06s.4.48,1.17.55l1,.07c1.44.12,2.26.52,2.62,1.54a2.48,2.48,0,0,1-1.83,3.16A3.63,3.63,0,0,1,18.58,19.5Z"/>
			<path d="M31.63,16A.77.77,0,0,1,31,17a.81.81,0,0,1-.88-.38l-.52-.71-3.26.78-.13.87a.81.81,0,0,1-.6.74.78.78,0,0,1-1-.57,1.26,1.26,0,0,1,0-.44l1.13-6.91A.82.82,0,0,1,27.3,10l4.13,5.64A1.15,1.15,0,0,1,31.63,16Zm-5.05-.79,2.22-.53L27,12Z"/>
			<path d="M37.69,8.36a.94.94,0,0,1,0,.44L36,15.58a.77.77,0,0,1-.67.66.76.76,0,0,1-.84-.43l-3.67-6a1,1,0,0,1-.16-.41A.79.79,0,0,1,32.14,9l2.75,4.59,1.22-5.2a.82.82,0,0,1,.68-.69A.77.77,0,0,1,37.69,8.36Z"/>
			<path d="M40.19,14.64l-.46-6.29a.79.79,0,0,1,.75-.86l3.86-.28a.71.71,0,0,1,.79.67.73.73,0,0,1-.68.79l-3.06.22.12,1.6,2.09-.15a.69.69,0,0,1,.76.64.67.67,0,0,1-.65.73l-2.1.16.15,2L45,13.63a.73.73,0,0,1,.8.68.72.72,0,0,1-.69.78l-4,.29A.78.78,0,0,1,40.19,14.64Z"/>
			<path d="M56.53,8.4l-2.39,3.67-.08,2.32a.81.81,0,1,1-1.62-.05L52.52,12,50.37,8.2a.86.86,0,0,1-.16-.54A.77.77,0,0,1,51,6.91a.81.81,0,0,1,.75.51l1.61,3,1.8-2.89A.8.8,0,0,1,56,7.07a.77.77,0,0,1,.77.8A1,1,0,0,1,56.53,8.4Z"/>
			<path d="M66.05,12.21a4.21,4.21,0,1,1-3.72-4.57A4.13,4.13,0,0,1,66.05,12.21Zm-6.71-.78a2.54,2.54,0,1,0,5,.58,2.54,2.54,0,1,0-5-.58Z"/>
			<path d="M67.66,13.21l.85-3.87a.81.81,0,1,1,1.59.35l-.89,4a1.74,1.74,0,1,0,3.4.75l.89-4a.81.81,0,1,1,1.58.35l-.86,3.87a3.36,3.36,0,1,1-6.56-1.45Z"/>
			<path d="M81.38,19.8a.76.76,0,0,1-1,.46.84.84,0,0,1-.54-.63l-.87-3h0l-1.3-.44-.68,2a.81.81,0,1,1-1.54-.52l2.07-6.08a.8.8,0,0,1,1-.51l2,.7a2.57,2.57,0,0,1,1.88,3.32,2.44,2.44,0,0,1-1.87,1.67l.71,2.34A1.12,1.12,0,0,1,81.38,19.8Zm-3.22-4.92,1.28.43a1.14,1.14,0,1,0,.73-2.15l-1.28-.43Z"/>
		</g>
	</symbol>

	<symbol id="account-time" viewBox="0 0 100 110">
		<g fill="none" stroke="#404041" stroke-linecap="round" stroke-linejoin="round" stroke-width="3px" >
			<path d="M23.94,67.1a27,27,0,1,0,2.54-20.36"/>
			<line x1="50" y1="41" x2="50" y2="60"/>
			<line x1="60" y1="70" x2="50" y2="60"/>
			<polyline points="25.97 35.68 26.41 46.84 37.12 44.02"/>
		</g>
		<g fill="#5CA18F">
			<path d="M35,105a4.21,4.21,0,1,1-4.22-4.1A4.12,4.12,0,0,1,35,105Zm-6.75,0a2.55,2.55,0,1,0,2.54-2.6A2.47,2.47,0,0,0,28.21,105Z"/>
			<path d="M42.87,108.38a.75.75,0,0,1-.75.74.85.85,0,0,1-.72-.42l-1.78-2.52H38.24v2.11a.8.8,0,0,1-.8.83.81.81,0,0,1-.82-.83v-6.41a.8.8,0,0,1,.83-.82h2.16a2.57,2.57,0,0,1,2.84,2.54,2.46,2.46,0,0,1-1.23,2.19l1.43,2A1.14,1.14,0,0,1,42.87,108.38Zm-4.63-3.62H39.6a1.14,1.14,0,1,0,0-2.27H38.24Z"/>
			<path d="M51.51,105a4,4,0,0,1-4.3,4H45.43a.8.8,0,0,1-.83-.83v-6.26a.8.8,0,0,1,.83-.83h1.78C49.77,101.06,51.51,102.64,51.51,105Zm-5.29-2.48v5h1A2.44,2.44,0,0,0,49.86,105a2.39,2.39,0,0,0-2.66-2.48Z"/>
			<path d="M53.19,108.17v-6.3a.79.79,0,0,1,.8-.81h3.87a.72.72,0,0,1,.75.73.73.73,0,0,1-.75.73H54.8v1.61h2.1a.69.69,0,1,1,0,1.38H54.8v2H58a.73.73,0,0,1,.74.74A.72.72,0,0,1,58,109H54A.79.79,0,0,1,53.19,108.17Z"/>
			<path d="M66.6,108.38a.76.76,0,0,1-.76.74.86.86,0,0,1-.72-.42l-1.77-2.52H62v2.11a.81.81,0,1,1-1.62,0v-6.41a.8.8,0,0,1,.83-.82h2.16a2.57,2.57,0,0,1,2.84,2.54,2.46,2.46,0,0,1-1.24,2.19l1.43,2A1.16,1.16,0,0,1,66.6,108.38ZM62,104.76h1.35a1.14,1.14,0,1,0,0-2.27H62Z"/>
			<path d="M68.23,108.05a.87.87,0,0,1-.3-.62.74.74,0,0,1,.75-.72.63.63,0,0,1,.42.16,2.36,2.36,0,0,0,1.69.81c.71,0,1.13-.33,1.13-.87s-.28-.65-1-1l-.85-.38c-1.26-.58-1.92-1.26-1.92-2.28a2.36,2.36,0,0,1,2.62-2.24,2.85,2.85,0,0,1,2.22.93.73.73,0,0,1,.22.52.75.75,0,0,1-.74.72.71.71,0,0,1-.45-.17,1.77,1.77,0,0,0-1.25-.56c-.57,0-1,.27-1,.76s.22.59.92.92l.9.39c1.32.59,2,1.24,2,2.32,0,1.46-1.19,2.37-2.77,2.37A3.63,3.63,0,0,1,68.23,108.05Z"/>
			<path d="M24.54,10.83a.92.92,0,0,1,0,.44l-.63,7a.82.82,0,0,1-1.47.46L18,13.36a1.22,1.22,0,0,1-.22-.38.79.79,0,0,1,.53-1,.81.81,0,0,1,.9.32l3.41,4.12L23,11.1a.83.83,0,0,1,.56-.78A.77.77,0,0,1,24.54,10.83Z"/>
			<path d="M28,16.84l-1.49-6.38a.81.81,0,0,1,.61-1,.79.79,0,0,1,1,.63l1.49,6.38a.81.81,0,1,1-1.58.37Z"/>
			<path d="M31.53,15.9l-1-6.22a.79.79,0,0,1,.66-.93L35,8.11a.73.73,0,1,1,.24,1.45l-3,.5.26,1.59,2.07-.35a.69.69,0,1,1,.23,1.37L32.7,13,33,15l3.17-.53a.73.73,0,1,1,.24,1.45l-4,.66A.81.81,0,0,1,31.53,15.9Z"/>
			<path d="M49.12,7.59a1,1,0,0,1-.06.4l-2,6.6a.78.78,0,0,1-.72.59.75.75,0,0,1-.79-.5l-2-4.68-1.43,4.89a.77.77,0,0,1-.71.6.79.79,0,0,1-.8-.51L37.76,8.69a.84.84,0,0,1-.12-.39.81.81,0,0,1,.76-.86.78.78,0,0,1,.78.48l2,4.71L42.58,7.8a.82.82,0,0,1,1.58-.1l2,4.63,1.42-4.91a.77.77,0,0,1,.72-.58A.79.79,0,0,1,49.12,7.59Z"/>
			<path d="M54.11,14.36,54.55,8a.79.79,0,0,1,.88-.77l2.15.14a2.58,2.58,0,0,1,2.67,2.74,2.61,2.61,0,0,1-3,2.38l-1.37-.1-.14,2.11a.79.79,0,0,1-.86.77A.81.81,0,0,1,54.11,14.36ZM57.32,11A1.09,1.09,0,0,0,58.6,10a1.08,1.08,0,0,0-1.12-1.2l-1.36-.1L56,11Z"/>
			<path d="M67,15.77a.78.78,0,0,1-.89.66.82.82,0,0,1-.68-.68l-.23-.85-3.31-.46-.45.76a.79.79,0,0,1-1.51-.41,1.26,1.26,0,0,1,.15-.42l3.57-6a.79.79,0,0,1,.84-.44.77.77,0,0,1,.68.65L67,15.33A1,1,0,0,1,67,15.77ZM62.6,13.19l2.26.32-.69-3.23Z"/>
			<path d="M68.46,15.78a.87.87,0,0,1-.16-.68.73.73,0,0,1,.89-.53.6.6,0,0,1,.37.24A2.38,2.38,0,0,0,71,16c.69.16,1.18-.08,1.3-.6s-.13-.7-.77-1.19l-.74-.56c-1.11-.84-1.6-1.65-1.37-2.65a2.37,2.37,0,0,1,3.06-1.61,2.84,2.84,0,0,1,1.95,1.41.69.69,0,0,1,.1.55.75.75,0,0,1-.88.54.69.69,0,0,1-.4-.27,1.77,1.77,0,0,0-1.09-.82c-.56-.13-1,.05-1.13.53s.08.62.7,1.09l.79.59c1.16.86,1.63,1.64,1.39,2.69-.32,1.43-1.68,2.06-3.23,1.7A3.6,3.6,0,0,1,68.46,15.78Z"/>
			<path d="M76.83,18.18l1.8-5.48-1.79-.59a.74.74,0,0,1-.48-.93.73.73,0,0,1,.94-.46l5.12,1.68a.72.72,0,0,1,.48.93.74.74,0,0,1-.94.46l-1.79-.59-1.8,5.48a.81.81,0,0,1-1,.54A.82.82,0,0,1,76.83,18.18Z"/>
		</g>
	</symbol>

	<symbol id="account-cart" viewBox="0 0 100 110">
		<g fill="none" stroke="#404041" stroke-linecap="round" stroke-linejoin="round" stroke-width="3px" >
			<polyline points="20 38 30 38 40 74 69 74"/>
			<polyline points="33 46 79 46 69 66 38 66"/>
			<circle cx="64" cy="83" r="3"/>
			<circle cx="45" cy="83" r="3"/>
			<line x1="10" y1="54" x2="26.98" y2="53.95"/>
			<line x1="16" y1="62" x2="29" y2="62"/>
			<line x1="22" y1="70" x2="31" y2="70"/>
			<polyline points="40.89 45.59 38.63 42.67 52.67 34.57 59.37 45.19"/>
			<polyline points="55.23 37.1 68.27 35.18 69.79 45.48"/>
		</g>
		<g fill="#5CA18F">
			<path d="M29.34,108.29v-6.4a.8.8,0,0,1,.83-.83H33.9a.71.71,0,0,1,.74.73.72.72,0,0,1-.74.73H31v2h2.29a.74.74,0,1,1,0,1.47H31v2.32a.81.81,0,1,1-1.62,0Z"/>
			<path d="M41.9,108.34a.77.77,0,0,1-.79.78.82.82,0,0,1-.77-.58l-.33-.81H36.66l-.34.81a.78.78,0,0,1-.75.58.79.79,0,0,1-.81-.78,1.37,1.37,0,0,1,.1-.43l2.71-6.44a.79.79,0,0,1,.77-.55.8.8,0,0,1,.77.55l2.69,6.44A1,1,0,0,1,41.9,108.34Zm-4.71-1.94h2.28l-1.13-3.1Z"/>
			<path d="M43.42,108.05a.87.87,0,0,1-.3-.62.73.73,0,0,1,.74-.72.63.63,0,0,1,.42.16,2.38,2.38,0,0,0,1.69.81c.71,0,1.13-.33,1.13-.87s-.28-.65-1-1l-.85-.38c-1.26-.58-1.92-1.26-1.92-2.28A2.37,2.37,0,0,1,46,100.92a2.89,2.89,0,0,1,2.22.93.76.76,0,0,1,.21.52.75.75,0,0,1-.74.72.68.68,0,0,1-.44-.17,1.81,1.81,0,0,0-1.25-.56c-.58,0-1,.27-1,.76s.22.59.93.92l.9.39c1.32.59,2,1.24,2,2.32,0,1.46-1.19,2.37-2.77,2.37A3.61,3.61,0,0,1,43.42,108.05Z"/>
			<path d="M52.26,108.29v-5.77H50.38a.73.73,0,1,1,0-1.46h5.38a.71.71,0,0,1,.75.73.73.73,0,0,1-.75.73H53.88v5.77a.81.81,0,1,1-1.62,0Z"/>
			<path d="M57.78,108.17v-6.3a.79.79,0,0,1,.8-.81h3.88a.71.71,0,0,1,.74.73.72.72,0,0,1-.74.73H59.4v1.61h2.1a.69.69,0,1,1,0,1.38H59.4v2h3.2a.73.73,0,0,1,.75.74.73.73,0,0,1-.75.73h-4A.79.79,0,0,1,57.78,108.17Z"/>
			<path d="M71.19,108.38a.75.75,0,0,1-.75.74.85.85,0,0,1-.72-.42l-1.78-2.52H66.56v2.11a.81.81,0,1,1-1.61,0v-6.41a.79.79,0,0,1,.82-.82h2.16a2.57,2.57,0,0,1,2.84,2.54,2.46,2.46,0,0,1-1.23,2.19l1.43,2A1.14,1.14,0,0,1,71.19,108.38Zm-4.63-3.62h1.36a1.14,1.14,0,1,0,0-2.27H66.56Z"/>
			<path d="M17.25,16.7A4.13,4.13,0,0,1,20,11.46a4,4,0,0,1,3.34.33.89.89,0,0,1,.43.49.75.75,0,0,1-.49.93.83.83,0,0,1-.69-.09,2.39,2.39,0,0,0-2.11-.23,2.5,2.5,0,0,0-1.6,3.29,2.49,2.49,0,0,0,3.25,1.65,2.46,2.46,0,0,0,1.54-1.45.84.84,0,0,1,.51-.5.74.74,0,0,1,.94.45A.94.94,0,0,1,25,17a3.94,3.94,0,0,1-2.47,2.27A4.09,4.09,0,0,1,17.25,16.7Z"/>
			<path d="M27.08,17,25.72,10.6a.81.81,0,1,1,1.59-.33l.48,2.29,3.43-.73-.49-2.3a.79.79,0,0,1,.63-1,.78.78,0,0,1,1,.64l1.35,6.4a.81.81,0,1,1-1.58.33l-.57-2.66L28.1,14l.56,2.66a.81.81,0,0,1-.61,1A.8.8,0,0,1,27.08,17Z"/>
			<path d="M35.65,15.2l-.76-6.27a.79.79,0,0,1,.7-.89l3.85-.47a.72.72,0,0,1,.83.64.74.74,0,0,1-.65.82l-3,.36.19,1.6,2.09-.25A.69.69,0,1,1,39,12.11l-2.08.25.23,2L40.36,14a.71.71,0,0,1,.82.63.72.72,0,0,1-.65.82l-4,.48A.78.78,0,0,1,35.65,15.2Z"/>
			<path d="M41.89,11.28A4.11,4.11,0,0,1,46,7a4,4,0,0,1,3.11,1.24.86.86,0,0,1,.28.59.76.76,0,0,1-.73.76A.8.8,0,0,1,48,9.31a2.43,2.43,0,0,0-2-.8,2.49,2.49,0,0,0-2.45,2.71,2.48,2.48,0,0,0,2.66,2.49,2.43,2.43,0,0,0,1.88-1,.86.86,0,0,1,.63-.34.73.73,0,0,1,.77.7.92.92,0,0,1-.23.61,4,4,0,0,1-3,1.49A4.11,4.11,0,0,1,41.89,11.28Z"/>
			<path d="M53.22,7.8l-.29,6.55a.8.8,0,0,1-.84.79.81.81,0,0,1-.78-.86l.29-6.55a.79.79,0,0,1,.85-.79A.8.8,0,0,1,53.22,7.8Zm4.66,6.82a.78.78,0,0,1-.79.74.88.88,0,0,1-.63-.37L53.6,11.4a.9.9,0,0,1-.19-.55.8.8,0,0,1,.25-.51l3-3a.77.77,0,0,1,.6-.24.75.75,0,0,1,.69.79.71.71,0,0,1-.26.53l-2.5,2.48,2.52,3.18A.69.69,0,0,1,57.88,14.62Z"/>
			<path d="M67.26,12.41A4.22,4.22,0,1,1,63.59,7.8,4.14,4.14,0,0,1,67.26,12.41Zm-6.7-.87a2.54,2.54,0,1,0,5,.66,2.54,2.54,0,1,0-5-.66Z"/>
			<path d="M68.89,13.44l.91-3.86a.81.81,0,1,1,1.58.38l-.94,4a1.74,1.74,0,1,0,3.38.8l.94-4a.8.8,0,0,1,1-.62.81.81,0,0,1,.6,1L75.42,15a3.36,3.36,0,1,1-6.53-1.54Z"/>
			<path d="M78.35,18.68l1.93-5.44-1.78-.63a.73.73,0,0,1-.45-.94.71.71,0,0,1,.94-.44L84.07,13a.7.7,0,0,1,.45.94.73.73,0,0,1-.94.44l-1.78-.63-1.93,5.44a.81.81,0,1,1-1.52-.54Z"/>
		</g>

	</symbol>

</svg>
